<svg viewBox="0 0 30 30" fill="currentColor" xmlns="http://www.w3.org/2000/svg">
    <symbol id="icon-editIcon" viewBox="0 0 24 24">
        <path fill-rule="evenodd" clip-rule="evenodd" d="M7.82034 14.4893L9.94134 16.6103L18.4303 8.12131L16.3093 6.00031H16.3073L7.82034 14.4893ZM17.7233 4.58531L19.8443 6.70731C20.6253 7.48831 20.6253 8.7543 19.8443 9.53531L10.0873 19.2933L5.13734 14.3433L14.8943 4.58531C15.2853 4.19531 15.7973 4.00031 16.3093 4.00031C16.8203 4.00031 17.3323 4.19531 17.7233 4.58531ZM5.20094 20.4097C4.49794 20.5537 3.87694 19.9327 4.02094 19.2297L4.80094 15.4207L9.00994 19.6297L5.20094 20.4097Z" fill="currentColor"></path>
    </symbol>
    <symbol id="icon-member" viewBox="0 0 24 24">
        <path fill-rule="evenodd" clip-rule="evenodd" d="M12.0254 3C9.25613 3 7.01123 5.23858 7.01123 8C7.01123 10.7614 9.25613 13 12.0254 13C14.7946 13 17.0395 10.7614 17.0395 8C17.0395 5.23858 14.7946 3 12.0254 3ZM9.01688 8C9.01688 9.65685 10.3638 11 12.0254 11C13.6869 11 15.0338 9.65685 15.0338 8C15.0338 6.34315 13.6869 5 12.0254 5C10.3638 5 9.01688 6.34315 9.01688 8Z" fill="currentColor"></path><path fill-rule="evenodd" clip-rule="evenodd" d="M12.0254 11C16.7803 11 20.6765 14.6667 21.0254 19.3194C20.8721 20.2721 20.0439 21 19.0452 21H18.9741C18.9741 21 18.9741 21 18.9741 21L5.0767 21C5.07671 21 5.0767 21 5.0767 21L5.00562 21C4.00691 21 3.1787 20.2721 3.02539 19.3193C3.37428 14.6667 7.27038 11 12.0254 11ZM5.0767 19H18.9741C18.4875 15.6077 15.5618 13 12.0254 13C8.48892 13 5.56331 15.6077 5.0767 19ZM19.0451 19.9769V20.0231C19.0452 20.0154 19.0452 20.0077 19.0452 20C19.0452 19.9923 19.0452 19.9846 19.0451 19.9769Z" fill="currentColor"></path>
    </symbol>
    <symbol  id="icon-label" viewBox="0 0 24 24">
        <path fill-rule="evenodd" clip-rule="evenodd" d="M13.1213 2.80762C12.3403 2.02657 11.0739 2.02657 10.2929 2.80762L3.92891 9.17158C1.19524 11.9052 1.19524 16.3374 3.92891 19.0711C6.66258 21.8047 11.0947 21.8047 13.8284 19.0711L20.1924 12.7071C20.9734 11.9261 20.9734 10.6597 20.1924 9.87869L13.1213 2.80762ZM18.7782 11.2929L11.7071 4.22183L5.34313 10.5858C3.39051 12.5384 3.39051 15.7042 5.34313 17.6569C7.29575 19.6095 10.4616 19.6095 12.4142 17.6569L18.7782 11.2929ZM10 14C10 14.5523 9.55228 15 9 15C8.44772 15 8 14.5523 8 14C8 13.4477 8.44772 13 9 13C9.55228 13 10 13.4477 10 14ZM12 14C12 15.6569 10.6569 17 9 17C7.34315 17 6 15.6569 6 14C6 12.3431 7.34315 11 9 11C10.6569 11 12 12.3431 12 14Z" fill="currentColor"></path>
    </symbol>
    <symbol id="card-icon" width="24" height="24" viewBox="0 0 24 24" >
        <path fill-rule="evenodd" clip-rule="evenodd" d="M5 5C3.89543 5 3 5.89543 3 7V17C3 18.1046 3.89543 19 5 19H19C20.1046 19 21 18.1046 21 17V7C21 5.89543 20.1046 5 19 5H5ZM19 7H5V13H19V7ZM17 16C17 16.5523 17.4477 17 18 17C18.5523 17 19 16.5523 19 16C19 15.4477 18.5523 15 18 15C17.4477 15 17 15.4477 17 16ZM6 17C5.44772 17 5 16.5523 5 16C5 15.4477 5.44772 15 6 15H10C10.5523 15 11 15.4477 11 16C11 16.5523 10.5523 17 10 17H6Z" fill="currentColor"></path>
    </symbol>
    <symbol id="card-activity" width="24" height="24" viewBox="0 0 24 24">
        <path d="M4 5C2.8955 5 2 5.89543 2 7C2 8.1045 2.89543 9 4 9C5.1045 9 6 8.10457 6 7C6 5.8955 5.10457 5 4 5Z" fill="currentColor"></path><path d="M4 13C2.8955 13 2 13.8954 2 15C2 16.1045 2.89543 17 4 17C5.1045 17 6 16.1046 6 15C6 13.8955 5.10457 13 4 13Z" fill="currentColor"></path><path d="M8 6C8 5.44772 8.44772 5 9 5H21C21.5523 5 22 5.44772 22 6C22 6.55228 21.5523 7 21 7H9C8.44772 7 8 6.55228 8 6Z" fill="currentColor"></path><path d="M9 9C8.44772 9 8 9.44772 8 10C8 10.5523 8.44771 11 9 11H18C18.5523 11 19 10.5523 19 10C19 9.44772 18.5523 9 18 9H9Z" fill="currentColor"></path><path d="M8 14C8 13.4477 8.44772 13 9 13H21C21.5523 13 22 13.4477 22 14C22 14.5523 21.5523 15 21 15H9C8.44772 15 8 14.5523 8 14Z" fill="currentColor"></path><path d="M9 17C8.44772 17 8 17.4477 8 18C8 18.5523 8.44771 19 9 19H18C18.5523 19 19 18.5523 19 18C19 17.4477 18.5523 17 18 17H9Z" fill="currentColor"></path>
    </symbol>
    <symbol id="card-checklist" width="24" height="24" viewBox="0 0 24 24">
        <path fill-rule="evenodd" clip-rule="evenodd" d="M6 4C4.89543 4 4 4.89543 4 6V18C4 19.1046 4.89543 20 6 20H18C19.1046 20 20 19.1046 20 18V13C20 12.4477 19.5523 12 19 12C18.4477 12 18 12.4477 18 13V18H6V6L16 6C16.5523 6 17 5.55228 17 5C17 4.44772 16.5523 4 16 4H6ZM8.73534 10.3223C8.36105 9.91618 7.72841 9.89038 7.3223 10.2647C6.91619 10.639 6.89039 11.2716 7.26467 11.6777L10.8768 15.597C11.4143 16.1231 12.2145 16.1231 12.7111 15.6264L13.0754 15.2683C13.3699 14.9785 13.6981 14.6556 14.0516 14.3075C15.0614 13.313 16.0713 12.3169 17.014 11.3848L17.0543 11.3449C18.7291 9.68869 20.0004 8.42365 20.712 7.70223C21.0998 7.30904 21.0954 6.67589 20.7022 6.28805C20.309 5.90022 19.6759 5.90457 19.2881 6.29777C18.5843 7.01131 17.3169 8.27244 15.648 9.92281L15.6077 9.96263C14.6662 10.8937 13.6572 11.8889 12.6483 12.8825L11.8329 13.6851L8.73534 10.3223Z" fill="currentColor"></path>
    </symbol>
    <symbol id="icon-external-link" width="22" height="22" viewBox="0 0 22 22">
        <path fill-rule="evenodd" clip-rule="evenodd" d="M10.745 8.6082C10.742 8.0352 11.204 7.5722 11.776 7.5722H11.78L15.941 7.5912C16.515 7.5942 16.983 8.0622 16.986 8.6362L17.005 12.7972C17.006 13.3712 16.543 13.8352 15.969 13.8322C15.394 13.8302 14.926 13.3622 14.924 12.7882L14.9163 11.0759L8.19297 17.7992C7.80197 18.1892 7.16797 18.1892 6.77797 17.7992C6.38797 17.4092 6.38797 16.7752 6.77797 16.3842L13.5013 9.66089L11.789 9.6532C11.215 9.6512 10.747 9.1832 10.745 8.6082Z" fill="currentColor"></path>
    </symbol>
    <symbol id="icon-link" width="24" height="24" viewBox="0 0 28 28">
        <!-- <rect width="24" height="24" fill="transparent" fill-opacity="0.01"></rect> -->
        <path d="M12.6539 8.76404C12.4917 8.91817 12.2757 9.00284 12.052 8.99998C11.8282 8.99713 11.6145 8.90698 11.4562 8.74875C11.298 8.59053 11.2078 8.37675 11.205 8.153C11.2021 7.92926 11.2868 7.71325 11.4409 7.55104L12.6549 6.33704C13.0001 5.99183 13.4099 5.71799 13.8609 5.53116C14.3119 5.34433 14.7953 5.24817 15.2834 5.24817C15.7716 5.24817 16.255 5.34433 16.706 5.53116C17.157 5.71799 17.5668 5.99183 17.9119 6.33704C18.2577 6.68195 18.5321 7.09168 18.7193 7.54276C18.9065 7.99385 19.003 8.47743 19.0031 8.96583C19.0031 9.45423 18.9069 9.93785 18.7199 10.389C18.5328 10.8402 18.2586 11.25 17.9129 11.595L16.6989 12.809L15.8949 13.613C15.5498 13.9591 15.1398 14.2338 14.6885 14.4214C14.2371 14.6089 13.7532 14.7057 13.2645 14.7062C12.7757 14.7066 12.2916 14.6108 11.8399 14.4241C11.3882 14.2374 10.9777 13.9635 10.6319 13.618C10.471 13.4571 10.3805 13.2387 10.3805 13.011C10.3805 12.7834 10.471 12.565 10.6319 12.404C10.7929 12.2431 11.0113 12.1526 11.2389 12.1526C11.4666 12.1526 11.685 12.2431 11.8459 12.404C12.6269 13.186 13.8959 13.184 14.6819 12.399L15.4859 11.596L16.6999 10.382C16.8862 10.1963 17.034 9.97569 17.1348 9.73275C17.2356 9.48981 17.2874 9.22935 17.2873 8.96633C17.2873 8.70331 17.2352 8.44289 17.1343 8.20002C17.0333 7.95715 16.8853 7.7366 16.6989 7.55104C16.5132 7.36508 16.2926 7.21757 16.0498 7.11692C15.807 7.01627 15.5468 6.96446 15.2839 6.96446C15.0211 6.96446 14.7609 7.01627 14.5181 7.11692C14.2753 7.21757 14.0547 7.36508 13.8689 7.55104L12.6539 8.76404ZM11.8459 15.236C12.0082 15.0819 12.2242 14.9972 12.4479 15.0001C12.6717 15.0029 12.8854 15.0931 13.0437 15.2513C13.2019 15.4095 13.292 15.6233 13.2949 15.8471C13.2977 16.0708 13.2131 16.2868 13.0589 16.449L11.8449 17.663C11.4998 18.0082 11.09 18.2821 10.639 18.4689C10.188 18.6557 9.70461 18.7519 9.21644 18.7519C8.72827 18.7519 8.24489 18.6557 7.79389 18.4689C7.34288 18.2821 6.9331 18.0082 6.58794 17.663C6.24216 17.3181 5.9678 16.9084 5.78057 16.4573C5.59334 16.0062 5.49692 15.5226 5.49683 15.0342C5.49673 14.5458 5.59297 14.0622 5.78003 13.6111C5.96708 13.1599 6.24129 12.7501 6.58694 12.405L7.80094 11.191L8.60494 10.387C8.95008 10.041 9.36005 9.76628 9.8114 9.57872C10.2627 9.39116 10.7466 9.29438 11.2354 9.29391C11.7242 9.29345 12.2082 9.38931 12.66 9.57601C13.1117 9.76272 13.5221 10.0366 13.8679 10.382C14.0289 10.543 14.1194 10.7614 14.1194 10.989C14.1194 11.2167 14.0289 11.4351 13.8679 11.596C13.707 11.757 13.4886 11.8475 13.2609 11.8475C13.0333 11.8475 12.8149 11.757 12.6539 11.596C12.4674 11.4101 12.2461 11.2627 12.0026 11.1624C11.7591 11.062 11.4983 11.0106 11.2349 11.011C10.9715 11.0115 10.7109 11.0638 10.4677 11.1651C10.2246 11.2663 10.0038 11.4145 9.81794 11.601L9.01394 12.404L7.79994 13.618C7.61366 13.8037 7.46589 14.0244 7.36508 14.2673C7.26428 14.5103 7.21244 14.7707 7.21253 15.0337C7.21263 15.2968 7.26465 15.5572 7.36563 15.8001C7.4666 16.0429 7.61453 16.2635 7.80094 16.449C7.98669 16.635 8.20726 16.7825 8.45006 16.8832C8.69286 16.9838 8.95311 17.0356 9.21594 17.0356C9.47877 17.0356 9.73903 16.9838 9.98182 16.8832C10.2246 16.7825 10.4452 16.635 10.6309 16.449L11.8459 15.236Z" fill="currentColor"></path>
    </symbol>
    <symbol id="icon-attachment" viewBox="0 0 24 24">
        <path fill-rule="evenodd" clip-rule="evenodd" d="M11.6426 17.9647C10.1123 19.46 7.62736 19.4606 6.10092 17.9691C4.57505 16.478 4.57769 14.0467 6.10253 12.5566L13.2505 5.57184C14.1476 4.6952 15.5861 4.69251 16.4832 5.56921C17.3763 6.44184 17.3778 7.85135 16.4869 8.72199L9.78361 15.2722C9.53288 15.5172 9.12807 15.5163 8.86954 15.2636C8.61073 15.0107 8.60963 14.6158 8.86954 14.3618L15.0989 8.27463C15.4812 7.90109 15.4812 7.29546 15.0989 6.92192C14.7167 6.54838 14.0969 6.54838 13.7146 6.92192L7.48523 13.0091C6.45911 14.0118 6.46356 15.618 7.48523 16.6163C8.50674 17.6145 10.1511 17.6186 11.1679 16.6249L17.8712 10.0747C19.5274 8.45632 19.5244 5.83555 17.8676 4.2165C16.2047 2.59156 13.5266 2.59657 11.8662 4.21913L4.71822 11.2039C2.42951 13.4404 2.42555 17.083 4.71661 19.3218C7.00774 21.5606 10.7323 21.5597 13.0269 19.3174L19.7133 12.7837C20.0956 12.4101 20.0956 11.8045 19.7133 11.431C19.331 11.0574 18.7113 11.0574 18.329 11.431L11.6426 17.9647Z" fill="currentColor"></path>
    </symbol>
    <symbol id="icon-description" width="24" height="24" viewBox="0 0 24 24">
        <path fill-rule="evenodd" clip-rule="evenodd" d="M4 5C3.44772 5 3 5.44772 3 6C3 6.55228 3.44772 7 4 7H20C20.5523 7 21 6.55228 21 6C21 5.44772 20.5523 5 20 5H4ZM4 9C3.44772 9 3 9.44772 3 10C3 10.5523 3.44772 11 4 11H20C20.5523 11 21 10.5523 21 10C21 9.44772 20.5523 9 20 9H4ZM3 14C3 13.4477 3.44772 13 4 13H20C20.5523 13 21 13.4477 21 14C21 14.5523 20.5523 15 20 15H4C3.44772 15 3 14.5523 3 14ZM4 17C3.44772 17 3 17.4477 3 18C3 18.5523 3.44772 19 4 19H14C14.5523 19 15 18.5523 15 18C15 17.4477 14.5523 17 14 17H4Z" fill="currentColor"></path>
    </symbol>
    <symbol id="icon-sidebar-description" viewBox="0 0 24 24">
        <path fill-rule="evenodd" clip-rule="evenodd" d="M4 5C3.44772 5 3 5.44772 3 6C3 6.55228 3.44772 7 4 7H20C20.5523 7 21 6.55228 21 6C21 5.44772 20.5523 5 20 5H4ZM4 9C3.44772 9 3 9.44772 3 10C3 10.5523 3.44772 11 4 11H20C20.5523 11 21 10.5523 21 10C21 9.44772 20.5523 9 20 9H4ZM3 14C3 13.4477 3.44772 13 4 13H20C20.5523 13 21 13.4477 21 14C21 14.5523 20.5523 15 20 15H4C3.44772 15 3 14.5523 3 14ZM4 17C3.44772 17 3 17.4477 3 18C3 18.5523 3.44772 19 4 19H14C14.5523 19 15 18.5523 15 18C15 17.4477 14.5523 17 14 17H4Z" fill="currentColor"></path>
    </symbol>
    <symbol id="icon-date" width="16" height="16" viewBox="0 0 24 24">
        <path d="M13 6C13 5.44772 12.5523 5 12 5C11.4477 5 11 5.44772 11 6V12C11 12.2652 11.1054 12.5196 11.2929 12.7071L13.7929 15.2071C14.1834 15.5976 14.8166 15.5976 15.2071 15.2071C15.5976 14.8166 15.5976 14.1834 15.2071 13.7929L13 11.5858V6Z" fill="currentColor"></path><path fill-rule="evenodd" clip-rule="evenodd" d="M22 12C22 17.5228 17.5228 22 12 22C6.47715 22 2 17.5228 2 12C2 6.47715 6.47715 2 12 2C17.5228 2 22 6.47715 22 12ZM12 20C16.4183 20 20 16.4183 20 12C20 7.58172 16.4183 4 12 4C7.58172 4 4 7.58172 4 12C4 16.4183 7.58172 20 12 20Z" fill="currentColor"></path>
    </symbol>
    <symbol id="selected_label" viewBox="-3 -4 16 16">
        <path d="M1.49022 3.21486C1.2407 2.94412 0.818938 2.92692 0.548195 3.17644C0.277453 3.42597 0.260252 3.84773 0.509776 4.11847L2.91785 6.73131C3.2762 7.08204 3.80964 7.08204 4.14076 6.75092C4.18159 6.71082 4.18159 6.71082 4.38359 6.51218C4.57995 6.31903 4.79875 6.1037 5.03438 5.87167C5.70762 5.20868 6.38087 4.54459 7.00931 3.92318L7.0362 3.89659C8.15272 2.79246 9.00025 1.9491 9.47463 1.46815C9.73318 1.20602 9.73029 0.783922 9.46815 0.525367C9.20602 0.266812 8.78392 0.269712 8.52537 0.531843C8.05616 1.00754 7.21125 1.84829 6.09866 2.94854L6.07182 2.97508C5.4441 3.59578 4.77147 4.25926 4.09883 4.92165C3.90522 5.11231 3.72299 5.29168 3.55525 5.4567L1.49022 3.21486Z"></path>
    </symbol>
    <symbol id="selected" viewBox="0 0 24 24">
        <path d="M1.49022 3.21486C1.2407 2.94412 0.818938 2.92692 0.548195 3.17644C0.277453 3.42597 0.260252 3.84773 0.509776 4.11847L2.91785 6.73131C3.2762 7.08204 3.80964 7.08204 4.14076 6.75092C4.18159 6.71082 4.18159 6.71082 4.38359 6.51218C4.57995 6.31903 4.79875 6.1037 5.03438 5.87167C5.70762 5.20868 6.38087 4.54459 7.00931 3.92318L7.0362 3.89659C8.15272 2.79246 9.00025 1.9491 9.47463 1.46815C9.73318 1.20602 9.73029 0.783922 9.46815 0.525367C9.20602 0.266812 8.78392 0.269712 8.52537 0.531843C8.05616 1.00754 7.21125 1.84829 6.09866 2.94854L6.07182 2.97508C5.4441 3.59578 4.77147 4.25926 4.09883 4.92165C3.90522 5.11231 3.72299 5.29168 3.55525 5.4567L1.49022 3.21486Z"></path>
    </symbol>
    <symbol id="eye-open" width="14" height="14" viewBox="0 0 24 24" >
        <g fill="currentColor" fillRule="evenodd">
            <path d="M12 18c-4.536 0-7.999-4.26-7.999-6 0-2.001 3.459-6 8-6 4.376 0 7.998 3.973 7.998 6 0 1.74-3.462 6-7.998 6m0-14C6.48 4 2 8.841 2 12c0 3.086 4.576 8 10 8 5.423 0 10-4.914 10-8 0-3.159-4.48-8-10-8"></path>
            <path d="M11.977 13.984c-1.103 0-2-.897-2-2s.897-2 2-2c1.104 0 2 .897 2 2s-.896 2-2 2m0-6c-2.206 0-4 1.794-4 4s1.794 4 4 4c2.207 0 4-1.794 4-4s-1.793-4-4-4"></path>
        </g>
    </symbol>
    <symbol id="close-icon" width="24" height="24" viewBox="0 0 24 24">
        <path fill-rule="evenodd" clip-rule="evenodd" d="M10.5858 12L5.29289 6.70711C4.90237 6.31658 4.90237 5.68342 5.29289 5.29289C5.68342 4.90237 6.31658 4.90237 6.70711 5.29289L12 10.5858L17.2929 5.29289C17.6834 4.90237 18.3166 4.90237 18.7071 5.29289C19.0976 5.68342 19.0976 6.31658 18.7071 6.70711L13.4142 12L18.7071 17.2929C19.0976 17.6834 19.0976 18.3166 18.7071 18.7071C18.3166 19.0976 17.6834 19.0976 17.2929 18.7071L12 13.4142L6.70711 18.7071C6.31658 19.0976 5.68342 19.0976 5.29289 18.7071C4.90237 18.3166 4.90237 17.6834 5.29289 17.2929L10.5858 12Z" fill="currentColor"></path>
    </symbol>
    <symbol id="three_dots" viewBox="0 0 24 24">
        <path fill-rule="evenodd" clip-rule="evenodd" d="M5 14C6.10457 14 7 13.1046 7 12C7 10.8954 6.10457 10 5 10C3.89543 10 3 10.8954 3 12C3 13.1046 3.89543 14 5 14ZM12 14C13.1046 14 14 13.1046 14 12C14 10.8954 13.1046 10 12 10C10.8954 10 10 10.8954 10 12C10 13.1046 10.8954 14 12 14ZM21 12C21 13.1046 20.1046 14 19 14C17.8954 14 17 13.1046 17 12C17 10.8954 17.8954 10 19 10C20.1046 10 21 10.8954 21 12Z" fill="currentColor"></path>
    </symbol>
    <symbol id="pencil-colorless" viewBox="0 0 24 24">
        <path fill-rule="evenodd" clip-rule="evenodd" d="M7.82034 14.4893L9.94134 16.6103L18.4303 8.12131L16.3093 6.00031H16.3073L7.82034 14.4893ZM17.7233 4.58531L19.8443 6.70731C20.6253 7.48831 20.6253 8.7543 19.8443 9.53531L10.0873 19.2933L5.13734 14.3433L14.8943 4.58531C15.2853 4.19531 15.7973 4.00031 16.3093 4.00031C16.8203 4.00031 17.3323 4.19531 17.7233 4.58531ZM5.20094 20.4097C4.49794 20.5537 3.87694 19.9327 4.02094 19.2297L4.80094 15.4207L9.00994 19.6297L5.20094 20.4097Z" fill="currentColor"></path>
    </symbol>
    <symbol id="pencil-logo" >
        <path d="M4.02 19.23a1 1 0 001.18 1.18l3.81-.78-4.21-4.21-.78 3.81zM19.844 6.707l-2.12-2.122A1.997 1.997 0 0016.308 4c-.512 0-1.024.195-1.415.585l-9.757 9.758 4.95 4.95 9.757-9.758a2 2 0 000-2.828z" fill="currentColor" fillRule="evenodd"></path>
    </symbol>
    <symbol id="google-logo" viewBox="0 0 48 48">
        <path fill="#EA4335" d="M24 9.5c3.54 0 6.71 1.22 9.21 3.6l6.85-6.85C35.9 2.38 30.47 0 24 0 14.62 0 6.51 5.38 2.56 13.22l7.98 6.19C12.43 13.72 17.74 9.5 24 9.5z"/><path fill="#4285F4" d="M46.98 24.55c0-1.57-.15-3.09-.38-4.55H24v9.02h12.94c-.58 2.96-2.26 5.48-4.78 7.18l7.73 6c4.51-4.18 7.09-10.36 7.09-17.65z"/><path fill="#FBBC05" d="M10.53 28.59c-.48-1.45-.76-2.99-.76-4.59s.27-3.14.76-4.59l-7.98-6.19C.92 16.46 0 20.12 0 24c0 3.88.92 7.54 2.56 10.78l7.97-6.19z"/><path fill="#34A853" d="M24 48c6.48 0 11.93-2.13 15.89-5.81l-7.73-6c-2.15 1.45-4.92 2.3-8.16 2.3-6.26 0-11.57-4.22-13.47-9.91l-7.98 6.19C6.51 42.62 14.62 48 24 48z"/><path fill="none" d="M0 0h48v48H0z"/>
    </symbol>
    <symbol id="microsoft-logo" >
        <path fill="#f25022" d="M1 1h9v9H1z"/>
        <path fill="#00a4ef" d="M1 11h9v9H1z"/>
        <path fill="#7fba00" d="M11 1h9v9h-9z"/>
        <path fill="#ffb900" d="M11 11h9v9h-9z"/>
    </symbol>
    <symbol id="apple-logo" fill="none">
        <path d="M13.498 9.667a3.86 3.86 0 0 1 1.838-3.238 3.951 3.951 0 0 0-3.113-1.683c-1.31-.138-2.58.784-3.247.784-.68 0-1.708-.77-2.814-.748A4.146 4.146 0 0 0 2.673 6.91c-1.508 2.611-.383 6.45 1.062 8.56.723 1.034 1.567 2.189 2.673 2.148 1.082-.045 1.486-.69 2.792-.69 1.293 0 1.672.69 2.8.664 1.161-.02 1.893-1.039 2.59-2.082a8.55 8.55 0 0 0 1.184-2.412 3.73 3.73 0 0 1-2.276-3.431ZM11.367 3.358a3.8 3.8 0 0 0 .87-2.723A3.866 3.866 0 0 0 9.734 1.93a3.616 3.616 0 0 0-.892 2.621c.98.01 1.91-.43 2.524-1.193Z" fill="#000"/>
    </symbol>
    <symbol id="slack-logo" viewBox="70 70 130 130">
        <style>.st0{fill:#e01e5a}.st1{fill:#36c5f0}.st2{fill:#2eb67d}.st3{fill:#ecb22e}</style>
        <path class="st0" d="M99.4 151.2c0 7.1-5.8 12.9-12.9 12.9-7.1 0-12.9-5.8-12.9-12.9 0-7.1 5.8-12.9 12.9-12.9h12.9v12.9zM105.9 151.2c0-7.1 5.8-12.9 12.9-12.9s12.9 5.8 12.9 12.9v32.3c0 7.1-5.8 12.9-12.9 12.9s-12.9-5.8-12.9-12.9v-32.3z"/><path class="st1" d="M118.8 99.4c-7.1 0-12.9-5.8-12.9-12.9 0-7.1 5.8-12.9 12.9-12.9s12.9 5.8 12.9 12.9v12.9h-12.9zM118.8 105.9c7.1 0 12.9 5.8 12.9 12.9s-5.8 12.9-12.9 12.9H86.5c-7.1 0-12.9-5.8-12.9-12.9s5.8-12.9 12.9-12.9h32.3z"/><path class="st2" d="M170.6 118.8c0-7.1 5.8-12.9 12.9-12.9 7.1 0 12.9 5.8 12.9 12.9s-5.8 12.9-12.9 12.9h-12.9v-12.9zM164.1 118.8c0 7.1-5.8 12.9-12.9 12.9-7.1 0-12.9-5.8-12.9-12.9V86.5c0-7.1 5.8-12.9 12.9-12.9 7.1 0 12.9 5.8 12.9 12.9v32.3z"/><path class="st3" d="M151.2 170.6c7.1 0 12.9 5.8 12.9 12.9 0 7.1-5.8 12.9-12.9 12.9-7.1 0-12.9-5.8-12.9-12.9v-12.9h12.9zM151.2 164.1c-7.1 0-12.9-5.8-12.9-12.9 0-7.1 5.8-12.9 12.9-12.9h32.3c7.1 0 12.9 5.8 12.9 12.9 0 7.1-5.8 12.9-12.9 12.9h-32.3z"/>
    </symbol>
    <symbol id="Loupe" viewBox="0 0 24 24">
        <path d="M16.436 15.085l3.94 4.01a1 1 0 01-1.425 1.402l-3.938-4.006a7.5 7.5 0 111.423-1.406zM10.5 16a5.5 5.5 0 100-11 5.5 5.5 0 000 11z" fill="currentColor" fillRule="evenodd"></path>
    </symbol>
    <symbol id="AddIcon" viewBox="0 0 24 24">
        <path d="M12 3C11.4477 3 11 3.44772 11 4V11L4 11C3.44772 11 3 11.4477 3 12C3 12.5523 3.44772 13 4 13H11V20C11 20.5523 11.4477 21 12 21C12.5523 21 13 20.5523 13 20V13H20C20.5523 13 21 12.5523 21 12C21 11.4477 20.5523 11 20 11L13 11V4C13 3.44772 12.5523 3 12 3Z" fill="currentColor"></path>
    </symbol>

    <symbol id="CloseIcon" viewBox="0 0 24 24">
        <path fill-rule="evenodd" clip-rule="evenodd" d="M10.5858 12L5.29289 6.70711C4.90237 6.31658 4.90237 5.68342 5.29289 5.29289C5.68342 4.90237 6.31658 4.90237 6.70711 5.29289L12 10.5858L17.2929 5.29289C17.6834 4.90237 18.3166 4.90237 18.7071 5.29289C19.0976 5.68342 19.0976 6.31658 18.7071 6.70711L13.4142 12L18.7071 17.2929C19.0976 17.6834 19.0976 18.3166 18.7071 18.7071C18.3166 19.0976 17.6834 19.0976 17.2929 18.7071L12 13.4142L6.70711 18.7071C6.31658 19.0976 5.68342 19.0976 5.29289 18.7071C4.90237 18.3166 4.90237 17.6834 5.29289 17.2929L10.5858 12Z" fill="currentColor"></path>
    </symbol>

    <symbol id="Complain" viewBox="0 0 20 20">
        <path d="M1 12.4V3.156C1 2.517 1.403 2 1.9 2h.7a2 2 0 0 1 2 2v7.556a2 2 0 0 1-2 2h-.7c-.497 0-.9-.518-.9-1.156ZM16.883 12.286H13.5a.563.563 0 0 0-.494.282.561.561 0 0 0-.007.567l1.193 2.143c.262.47.289 1.021.075 1.514a1.703 1.703 0 0 1-1.16.981l-.842.21a.572.572 0 0 1-.564-.172l-4.567-5.063a2.852 2.852 0 0 1-.735-1.91v-5.98A2.864 2.864 0 0 1 9.262 2h5.698c1.286 0 2.422.865 2.761 2.102L18.944 9.7a2.116 2.116 0 0 1-2.061 2.585Z" fill="currentColor" />
    </symbol>

    <symbol id="Promote" viewBox="0 0 20 20">
        <path d="M20 5.472c0-1.393-.497-2.786-1.59-3.88C17.316.497 15.924 0 14.533 0c-1.591 0-3.182.696-4.374 1.89L8.17 4.377c-.198-.1-.497-.199-.696-.199-1.192 0-2.485.597-3.678 1.791-.894.895-3.578 4.377-3.578 4.377-.554.555-.001 1.817 1.093 1.393l2.784-.995 1.384 2.289-1.786 1.787a.847.847 0 1 0 1.197 1.197l1.79-1.79 2.683 1.392-1.093 3.184c-.205 1.094 1.015 1.47 1.49.994 0 0 3.48-2.686 4.375-3.581 1.093-1.194 1.69-2.487 1.79-3.581 0-.299 0-.498-.1-.796l2.187-1.89C19.304 8.654 20 7.062 20 5.471Zm-6.163 3.183a2.462 2.462 0 0 1-2.486-2.487 2.462 2.462 0 0 1 2.486-2.487 2.462 2.462 0 0 1 2.485 2.487 2.462 2.462 0 0 1-2.485 2.487Z" fill="currentColor" />
    </symbol>

    <symbol id="Star" viewBox="0 0 32 32">
        <path d="M31.547 12a.848.848 0 00-.677-.577l-9.427-1.376-4.224-8.532a.847.847 0 00-1.516 0l-4.218 8.534-9.427 1.355a.847.847 0 00-.467 1.467l6.823 6.664-1.612 9.375a.847.847 0 001.23.893l8.428-4.434 8.432 4.432a.847.847 0 001.229-.894l-1.615-9.373 6.822-6.665a.845.845 0 00.214-.869z" />
    </symbol>

    <symbol id="ShareAd" viewBox="0 0 18 20">
        <path fill-rule="evenodd" clip-rule="evenodd" d="M14.319 7.2C16.352 7.2 18 5.588 18 3.6S16.352 0 14.32 0c-2.034 0-3.682 1.612-3.682 3.6 0 .116.005.231.016.344L5.925 7.145A3.72 3.72 0 0 0 3.682 6.4C1.648 6.4 0 8.012 0 10s1.648 3.6 3.682 3.6a3.72 3.72 0 0 0 2.243-.745l4.728 3.2a3.557 3.557 0 0 0-.016.345c0 1.988 1.648 3.6 3.682 3.6C16.352 20 18 18.388 18 16.4s-1.648-3.6-3.681-3.6a3.713 3.713 0 0 0-2.605 1.055L7.263 10.84a3.533 3.533 0 0 0 0-1.682l4.452-3.014A3.712 3.712 0 0 0 14.319 7.2Z" fill="currentColor" />
    </symbol>

    <symbol id="ThisMyBull" viewBox="0 0 20 20">
        <path fill-rule="evenodd" clip-rule="evenodd" d="M14.748 4.348c0 2.401-1.902 4.348-4.249 4.348-2.347 0-4.249-1.947-4.249-4.348S8.152 0 10.5 0c2.346 0 4.248 1.947 4.248 4.348ZM18.601 15.224c1.35 2.391-.94 4.776-3.64 4.776H6.039c-2.698 0-4.989-2.385-3.64-4.776 1.616-2.863 4.64-4.79 8.102-4.79 3.463 0 6.486 1.927 8.101 4.79Z" fill="currentColor" />
    </symbol>

    <symbol id="CrossBtn" viewBox="0 0 16 16" >
        <path fill-rule="evenodd" clip-rule="evenodd" d="M1.707.293A1 1 0 0 0 .293 1.707L6.586 8 .293 14.293a1 1 0 1 0 1.414 1.414L8 9.414l6.293 6.293a1 1 0 0 0 1.414-1.414L9.414 8l6.293-6.293A1 1 0 0 0 14.293.293L8 6.586 1.707.293z" fill="currentColor"/>
    </symbol>

    <symbol id="Verified" viewBox="0 0 20 20" className="css-xylcl3 e1eg0jax1"><defs><linearGradient id="official_svg__a" x1="0%" x2="100%" y1="0%" y2="100%"><stop offset="0%" stop-color="#3EA4FF"></stop><stop offset="100%" stop-color="#00C3FF"></stop></linearGradient></defs><g fill="none" fill-rule="evenodd"><path fill="url(#official_svg__a)" fill-rule="nonzero" d="m11.357.535.095.095 1.068 1.142c.391.42.945.649 1.518.63l1.563-.054a1.987 1.987 0 0 1 2.052 1.918V4.4L17.6 5.963a1.98 1.98 0 0 0 .63 1.518l1.14 1.069c.801.749.844 2.006.095 2.807l-.046.048-1.19 1.115a1.98 1.98 0 0 0-.63 1.518l.053 1.563a1.98 1.98 0 0 1-.527 1.415l-.12.118c-.336.307-.78.5-1.27.518H15.6l-1.563-.053a1.98 1.98 0 0 0-1.518.63L11.45 19.37a1.986 1.986 0 0 1-2.807.095l-.095-.095-1.068-1.142a1.984 1.984 0 0 0-1.518-.63l-1.563.054a1.977 1.977 0 0 1-1.277-.41l-.129-.11-.12-.12a1.973 1.973 0 0 1-.525-1.278V15.6l.053-1.563a1.98 1.98 0 0 0-.63-1.518L.63 11.45a1.986 1.986 0 0 1-.095-2.807l.095-.095L1.772 7.48c.42-.391.649-.945.63-1.518L2.347 4.4a1.987 1.987 0 0 1 1.918-2.052H4.4l1.563.053a1.98 1.98 0 0 0 1.518-.63L8.55.63a1.986 1.986 0 0 1 2.807-.095z"></path><path fill="#FFF" d="M14.658 7.148c.04.343-.06.687-.277.955l-4.189 5.186a1.33 1.33 0 0 1-1.743.282l-2.513-1.595a1.288 1.288 0 0 1-.393-1.792c.4-.604 1.21-.776 1.82-.387l1.511.96 3.446-4.268a1.331 1.331 0 0 1 1.85-.207c.273.211.449.524.488.866z"></path></g></symbol>

    <symbol id="Info" viewBox="0 0 20 20">
        <path fill="currentColor" fill-rule="evenodd" d="M10 20c5.523 0 10-4.477 10-10S15.523 0 10 0 0 4.477 0 10s4.477 10 10 10zm.143-16.5a1.5 1.5 0 1 0 .001 3.001 1.5 1.5 0 0 0-.001-3.001zm-.607 4.498c.546-.002 1.101.188 1.508.598.41.41.601.976.599 1.545v.006a3.338 3.338 0 0 1-.262 1.242l-.682 1.704-.133.332c-.068.17-.088.3-.088.386a.33.33 0 0 0 .02.13.084.084 0 0 0 .018.032c.005.005.011.01.023.014.015.005.05.015.116.016.156.002.523-.09.99-.528.36-.336.958-.424 1.39-.058.412.348.498 1.007.07 1.428-.755.742-1.606 1.153-2.453 1.157a2.165 2.165 0 0 1-1.556-.62c-.412-.414-.62-.984-.618-1.57a3.07 3.07 0 0 1 .232-1.13l.237-.595.58-1.446c.09-.227.116-.395.116-.5a.369.369 0 0 0-.017-.13l-.001-.003a.342.342 0 0 0-.092-.011h-.002c-.164-.002-.576.109-1.082.59-.358.34-.958.426-1.39.06-.412-.348-.496-1.005-.071-1.426.782-.776 1.666-1.215 2.546-1.223h.002z" clip-rule="evenodd"/>
    </symbol>

    <symbol id="KebabMenu" viewBox="0 0 24 24">
        <path fill-rule="evenodd" clip-rule="evenodd" d="M4 5C4 4.44772 4.44772 4 5 4H7C7.55228 4 8 4.44772 8 5V7C8 7.55228 7.55228 8 7 8H5C4.44772 8 4 7.55228 4 7V5ZM4 11C4 10.4477 4.44772 10 5 10H7C7.55228 10 8 10.4477 8 11V13C8 13.5523 7.55228 14 7 14H5C4.44772 14 4 13.5523 4 13V11ZM11 4C10.4477 4 10 4.44772 10 5V7C10 7.55228 10.4477 8 11 8H13C13.5523 8 14 7.55228 14 7V5C14 4.44772 13.5523 4 13 4H11ZM10 11C10 10.4477 10.4477 10 11 10H13C13.5523 10 14 10.4477 14 11V13C14 13.5523 13.5523 14 13 14H11C10.4477 14 10 13.5523 10 13V11ZM17 4C16.4477 4 16 4.44772 16 5V7C16 7.55228 16.4477 8 17 8H19C19.5523 8 20 7.55228 20 7V5C20 4.44772 19.5523 4 19 4H17ZM16 11C16 10.4477 16.4477 10 17 10H19C19.5523 10 20 10.4477 20 11V13C20 13.5523 19.5523 14 19 14H17C16.4477 14 16 13.5523 16 13V11ZM5 16C4.44772 16 4 16.4477 4 17V19C4 19.5523 4.44772 20 5 20H7C7.55228 20 8 19.5523 8 19V17C8 16.4477 7.55228 16 7 16H5ZM10 17C10 16.4477 10.4477 16 11 16H13C13.5523 16 14 16.4477 14 17V19C14 19.5523 13.5523 20 13 20H11C10.4477 20 10 19.5523 10 19V17ZM17 16C16.4477 16 16 16.4477 16 17V19C16 19.5523 16.4477 20 17 20H19C19.5523 20 20 19.5523 20 19V17C20 16.4477 19.5523 16 19 16H17Z" fill="currentColor"/>
    </symbol>

    <symbol id="Search" viewBox="0 0 24 24">
        <path d="M16.436 15.085l3.94 4.01a1 1 0 01-1.425 1.402l-3.938-4.006a7.5 7.5 0 111.423-1.406zM10.5 16a5.5 5.5 0 100-11 5.5 5.5 0 000 11z" fill="currentColor" fill-rule="evenodd"></path>
    </symbol>
    <symbol id="ArrowDown" viewBox="0 0 24 24">
        <path d="M11.2929 16.7071L4.22185 9.63606C3.83132 9.24554 3.83132 8.61237 4.22185 8.22185C4.61237 7.83133 5.24554 7.83133 5.63606 8.22185L12 14.5858L18.364 8.22185C18.7545 7.83132 19.3877 7.83132 19.7782 8.22185C20.1687 8.61237 20.1687 9.24554 19.7782 9.63606L12.7071 16.7071C12.3166 17.0977 11.6834 17.0977 11.2929 16.7071Z" fill="currentColor"/>
    </symbol>

    <symbol id="Atlassian" viewBox="0 0 32 32">
        <path id="Vector" d="M10.9015 15.2C10.7924 15.0546 10.5742 14.9818 10.3924 14.9818C10.247 15.0182 10.1015 15.1273 10.0288 15.2727L4.06515 27.2364C3.91969 27.4909 4.02879 27.8182 4.28333 27.9273C4.35606 27.9637 4.42879 28 4.50152 28H12.8288C13.0106 28 13.2288 27.8909 13.3015 27.7091C15.047 24.1091 13.9561 18.4728 10.9015 15.2Z"/>
        <path id="Vector_2" d="M27.9561 27.2364C27.847 27.0182 16.7561 4.83638 16.5015 4.29093C16.4288 4.14547 16.2833 4.03636 16.1015 4H16.0651C15.8833 4 15.7015 4.10911 15.5924 4.29093C12.5742 9.05456 12.247 14.8 14.6833 19.6727L18.6833 27.7091C18.7561 27.8909 18.9379 28 19.1561 28H27.4833C27.7742 28 27.9924 27.7818 27.9924 27.4909C27.9924 27.3818 27.9924 27.3091 27.9561 27.2364Z"/>
    </symbol>

    <symbol id="Trello" viewBox="0 0 256 256">
        <defs>
        <linearGradient x1="50%" y1="0%" x2="50%" y2="100%" id="a">
        <stop stop-color="#0091E6" offset="0%"/>
        <stop stop-color="#0079BF" offset="100%"/>
        </linearGradient></defs><rect fill="url(#a)" width="256" height="256" rx="25"/>
        <rect fill="#FFF" x="144.64" y="33.28" width="78.08" height="112" rx="12"/>
        <rect fill="#FFF" x="33.28" y="33.28" width="78.08" height="176" rx="12"/>
    </symbol>

    <symbol id="Plus" viewBox="0 0 24 24">
        <path d="M12 3C11.4477 3 11 3.44772 11 4V11L4 11C3.44772 11 3 11.4477 3 12C3 12.5523 3.44772 13 4 13H11V20C11 20.5523 11.4477 21 12 21C12.5523 21 13 20.5523 13 20V13H20C20.5523 13 21 12.5523 21 12C21 11.4477 20.5523 11 20 11L13 11V4C13 3.44772 12.5523 3 12 3Z"/>
    </symbol>

    <symbol id="Trash" viewBox="0 0 24 24">
      <path d="M18 6L17.1991 18.0129C17.129 19.065 17.0939 19.5911 16.8667 19.99C16.6666 20.3412 16.3648 20.6235 16.0011 20.7998C15.588 21 15.0607 21 14.0062 21H9.99377C8.93927 21 8.41202 21 7.99889 20.7998C7.63517 20.6235 7.33339 20.3412 7.13332 19.99C6.90607 19.5911 6.871 19.065 6.80086 18.0129L6 6M4 6H20M16 6L15.7294 5.18807C15.4671 4.40125 15.3359 4.00784 15.0927 3.71698C14.8779 3.46013 14.6021 3.26132 14.2905 3.13878C13.9376 3 13.523 3 12.6936 3H11.3064C10.477 3 10.0624 3 9.70951 3.13878C9.39792 3.26132 9.12208 3.46013 8.90729 3.71698C8.66405 4.00784 8.53292 4.40125 8.27064 5.18807L8 6M14 10V17M10 10V17"/>
    </symbol>

    <symbol id="People" viewBox="0 0 24 24">
        <path d="M12 13C14.7614 13 17 10.7614 17 8C17 5.23858 14.7614 3 12 3C9.23858 3 7 5.23858 7 8C7 9.44777 7.61532 10.7518 8.59871 11.6649C5.31433 13.0065 3 16.233 3 20C3 20.5523 3.44772 21 4 21H12C12.5523 21 13 20.5523 13 20C13 19.4477 12.5523 19 12 19H5.07089C5.55612 15.6077 8.47353 13 12 13ZM15 8C15 9.65685 13.6569 11 12 11C10.3431 11 9 9.65685 9 8C9 6.34315 10.3431 5 12 5C13.6569 5 15 6.34315 15 8Z"/>
        <path d="M17 14C17 13.4477 17.4477 13 18 13C18.5523 13 19 13.4477 19 14V16H21C21.5523 16 22 16.4477 22 17C22 17.5523 21.5523 18 21 18H19V20C19 20.5523 18.5523 21 18 21C17.4477 21 17 20.5523 17 20V18H15C14.4477 18 14 17.5523 14 17C14 16.4477 14.4477 16 15 16H17V14Z"/>
    </symbol>

    <symbol id="Castle" viewBox="0 0 24 24">
        <path d="M5 11C5 9.89543 5.89543 9 7 9H8H10H14H16H17C18.1046 9 19 9.89543 19 11V19C19 20.1046 18.1046 21 17 21H7C5.89543 21 5 20.1046 5 19V11ZM10 11H14H16H17V19H7V11H8H10ZM14 15C14 16.1046 13.1046 17 12 17C10.8954 17 10 16.1046 10 15C10 13.8954 10.8954 13 12 13C13.1046 13 14 13.8954 14 15Z" fill="currentColor"/>
        <path d="M10.3817 5.69846C10.0982 6.10344 10 6.63103 10 7V9H8V7C8 6.36897 8.15175 5.39656 8.74327 4.55154C9.37523 3.64874 10.4367 3 12 3C13.5633 3 14.6248 3.64874 15.2567 4.55154C15.8482 5.39656 16 6.36897 16 7V9H14V7C14 6.63103 13.9018 6.10344 13.6183 5.69846C13.3752 5.35126 12.9367 5 12 5C11.0633 5 10.6248 5.35126 10.3817 5.69846Z" fill="currentColor"/>
    </symbol>

    <symbol id="Pencil" viewBox="0 0 24 24">
        <path d="M7.82034 14.4893L9.94134 16.6103L18.4303 8.12131L16.3093 6.00031H16.3073L7.82034 14.4893ZM17.7233 4.58531L19.8443 6.70731C20.6253 7.48831 20.6253 8.7543 19.8443 9.53531L10.0873 19.2933L5.13734 14.3433L14.8943 4.58531C15.2853 4.19531 15.7973 4.00031 16.3093 4.00031C16.8203 4.00031 17.3323 4.19531 17.7233 4.58531ZM5.20094 20.4097C4.49794 20.5537 3.87694 19.9327 4.02094 19.2297L4.80094 15.4207L9.00994 19.6297L5.20094 20.4097Z" fill="currentColor"/>
    </symbol>

    <symbol id="QuestionMark" viewBox="0 0 48 48">
        <path fill-rule="evenodd" clip-rule="evenodd" d="M24 42C33.9411 42 42 33.9411 42 24C42 14.0589 33.9411 6 24 6C14.0589 6 6 14.0589 6 24C6 33.9411 14.0589 42 24 42ZM24 44C35.0457 44 44 35.0457 44 24C44 12.9543 35.0457 4 24 4C12.9543 4 4 12.9543 4 24C4 35.0457 12.9543 44 24 44Z" fill="#333333"/>
        <path d="M31.6631 12.3027C33.6894 13.8676 35 16.2296 35 19.2903C35 22.8107 33.0456 25.2437 30.8102 26.7355C29.2829 27.7547 27.5519 28.395 26 28.7291V30C26 31.1046 25.1046 32 24 32C22.8954 32 22 31.1046 22 30V27C22 25.9444 22.8203 25.0706 23.8738 25.004C25.1758 24.9217 27.0744 24.4196 28.5898 23.4083C30.0544 22.4309 31 21.1102 31 19.2903C31 17.4962 30.2856 16.2929 29.2181 15.4684C28.0852 14.5934 26.4424 14.0721 24.6041 14.0069C22.7734 13.9419 20.9308 14.3379 19.5007 15.0879C18.0704 15.838 17.2151 16.8431 16.9415 17.9496C16.6765 19.0219 15.5923 19.6763 14.52 19.4112C13.4478 19.1462 12.7934 18.062 13.0584 16.9897C13.6849 14.4553 15.5296 12.6538 17.643 11.5455C19.7567 10.4369 22.3015 9.92266 24.7459 10.0094C27.1825 10.0958 29.7023 10.7882 31.6631 12.3027Z" fill="#333333"/>
        <path d="M22 36C22 34.8954 22.8954 34 24 34C25.1045 34 26 34.8954 26 36C26 37.1046 25.1045 38 24 38C22.8954 38 22 37.1046 22 36Z" fill="#333333"/>
    </symbol>

    <symbol id="ManPlus" viewBox="0 0 24 24">
      <path fill-rule="evenodd" clip-rule="evenodd" d="M12 13C14.7614 13 17 10.7614 17 8C17 5.23858 14.7614 3 12 3C9.23858 3 7 5.23858 7 8C7 9.44777 7.61532 10.7518 8.59871 11.6649C5.31433 13.0065 3 16.233 3 20C3 20.5523 3.44772 21 4 21H12C12.5523 21 13 20.5523 13 20C13 19.4477 12.5523 19 12 19H5.07089C5.55612 15.6077 8.47353 13 12 13ZM15 8C15 9.65685 13.6569 11 12 11C10.3431 11 9 9.65685 9 8C9 6.34315 10.3431 5 12 5C13.6569 5 15 6.34315 15 8Z" fill="currentColor"/>
      <path d="M17 14C17 13.4477 17.4477 13 18 13C18.5523 13 19 13.4477 19 14V16H21C21.5523 16 22 16.4477 22 17C22 17.5523 21.5523 18 21 18H19V20C19 20.5523 18.5523 21 18 21C17.4477 21 17 20.5523 17 20V18H15C14.4477 18 14 17.5523 14 17C14 16.4477 14.4477 16 15 16H17V14Z" fill="currentColor"/>
    </symbol>

    <symbol id="ArrowsUp" viewBox="0 -960 960 960">
        <path d="m296-105-56-56 240-240 240 240-56 56-184-183-184 183Zm0-240-56-56 240-240 240 240-56 56-184-183-184 183Z"/>
        <!-- <path d="m296-105-56-56 240-240 240 240-56 56-184-183-184 183Zm0-240-56-56 240-240 240 240-56 56-184-183-184 183Zm0-240-56-56 240-240 240 240-56 56-184-183-184 183Z"/> -->
    </symbol>

    <symbol id="ArrowsDoubleLeft" viewBox="0 -960 960 960">
        <path d="M440-240 200-480l240-240 56 56-183 184 183 184-56 56Zm264 0L464-480l240-240 56 56-183 184 183 184-56 56Z"/>
    </symbol>
    <symbol id="LogoAtlassian" viewBox="0 0 190 32">
        <defs>
            <linearGradient x1="99.684716%" y1="15.8138128%" x2="39.8444399%" y2="97.4388388%" id="uid6">
            <stop stopColor="#344563" offset="0%"/>
            <stop stopColor="#7A869A" offset="100%"/>
            </linearGradient>
        </defs>
        <g stroke="none" strokeWidth="1" fill="#505F79">
            <path fill="url(#uid6)" d="M6.90502605,15.6123193 C6.76436383,15.4302139 6.53773035,15.3340846 6.30742588,15.35884 C6.0771214,15.3835955 5.876643,15.525635 5.7787929,15.7333781 L0.0719979599,27.0218487 C-0.0337056449,27.2310259 -0.0224063827,27.4794358 0.101860917,27.6783741 C0.226128216,27.8773125 0.445645594,27.9984148 0.68202605,27.9984369 L8.62844459,27.9984369 C8.88847261,28.0044096 9.12761649,27.8581627 9.23847268,27.6253781 C10.9526159,24.1210252 9.91378448,18.7926722 6.90502605,15.6123193 Z"/>
            <path fill="#7A869A" d="M11.0859556,5.33713587 C8.19309829,9.74089822 7.85921851,15.3267488 10.2073011,20.0371359 L14.0383488,27.6176065 C14.1538739,27.8462194 14.3900332,27.9906411 14.6483769,27.9906653 L22.5933685,27.9906653 C22.829749,27.9906431 23.0492663,27.8695408 23.1735336,27.6706025 C23.2978009,27.4716641 23.3091002,27.2232543 23.2033966,27.014077 C23.2033966,27.014077 12.5147056,5.8619594 12.2460792,5.33290058 C12.1377032,5.11315026 11.9118188,4.97410225 11.6646746,4.97500451 C11.4175304,4.97590676 11.1926893,5.11660025 11.0859556,5.33713587 L11.0859556,5.33713587 Z"/>
            <path d="M104.2774,14.3919316 C104.2774,17.1872257 105.588069,19.4065198 110.714802,20.3862846 C113.773504,21.0215787 114.414212,21.5100493 114.414212,22.5187551 C114.414212,23.4985198 113.772077,24.1327551 111.617715,24.1327551 C109.013896,24.0864379 106.462135,23.403307 104.189999,22.1442846 L104.189999,26.6972257 C105.733976,27.4465198 107.772754,28.2822846 111.559566,28.2822846 C116.919251,28.2822846 119.045788,25.9175787 119.045788,22.4033434 M119.045788,22.4033434 C119.045788,19.0892257 117.268858,17.5327551 112.25878,16.4668728 C109.491535,15.8615787 108.821574,15.2566375 108.821574,14.3919316 C108.821574,13.297814 109.811889,12.835814 111.646968,12.835814 C113.860906,12.835814 116.045591,13.4986375 118.113622,14.4208728 L118.113622,10.0691081 C116.130615,9.17615406 113.970906,8.73311319 111.792518,8.7724022 C106.840589,8.7724022 104.2774,10.9048728 104.2774,14.3919316" fill="inherit"/>
            <polygon fill="inherit" points="173.129997 9.07000017 173.129997 28.0038825 177.20791 28.0038825 177.20791 13.5657649 178.926691 17.3983531 184.694132 28.0038825 189.820865 28.0038825 189.820865 9.07000017 185.742952 9.07000017 185.742952 21.2891766 184.198975 17.7442355 179.567399 9.07000017"/>
            <rect fill="inherit" x="142.740005" y="9.07000017" width="4.45677247" height="18.9338824"/>
            <path d="M137.600792,22.4033434 C137.600792,19.0892257 135.823862,17.5327551 130.813784,16.4668728 C128.046539,15.8615787 127.376579,15.2566375 127.376579,14.3919316 C127.376579,13.297814 128.366893,12.835814 130.201972,12.835814 C132.41591,12.835814 134.600595,13.4986375 136.668626,14.4208728 L136.668626,10.0691081 C134.685619,9.17615406 132.52591,8.73311319 130.347522,8.7724022 C125.395593,8.7724022 122.832404,10.9048728 122.832404,14.3919316 C122.832404,17.1872257 124.143073,19.4065198 129.269806,20.3862846 C132.328508,21.0215787 132.969216,21.5100493 132.969216,22.5187551 C132.969216,23.4985198 132.327081,24.1327551 130.172719,24.1327551 C127.568901,24.0864379 125.017139,23.403307 122.745003,22.1442846 L122.745003,26.6972257 C124.28898,27.4465198 126.327758,28.2822846 130.11457,28.2822846 C135.474256,28.2822846 137.600792,25.9175787 137.600792,22.4033434" fill="inherit"/>
            <polygon fill="inherit" points="69.6599979 9.07000017 69.6599979 28.0038825 78.8204081 28.0038825 80.2627142 23.9115296 74.1456665 23.9115296 74.1456665 9.07000017"/>
            <polygon fill="inherit" points="51.5549984 9.07000017 51.5549984 13.1620002 56.5069282 13.1620002 56.5069282 28.0038825 60.9925967 28.0038825 60.9925967 13.1620002 66.2941332 13.1620002 66.2941332 9.07000017"/>
            <path d="M45.0573091,9.07000017 L39.1785647,9.07000017 L32.5050001,28.0038825 L37.6014102,28.0038825 L38.5474889,24.815059 C40.877531,25.4919503 43.3551322,25.4919503 45.6851743,24.815059 L46.6312529,28.0038825 L51.7287333,28.0038825 L45.0573091,9.07000017 Z M42.1177585,21.4007061 C41.287584,21.4006584 40.4616854,21.2831148 39.6651602,21.0516472 L42.1177585,12.7889413 L44.5703569,21.0544708 C43.7736914,21.2849831 42.9477956,21.4015755 42.1177585,21.4007061 L42.1177585,21.4007061 Z" fill="inherit"/>
            <path d="M94.6019534,9.07000017 L88.7235658,9.07000017 L82.0500011,28.0038825 L87.1474815,28.0038825 L88.0935601,24.815059 C90.4236023,25.4919503 92.9012034,25.4919503 95.2312455,24.815059 L96.1773242,28.0038825 L101.274805,28.0038825 L94.6019534,9.07000017 Z M91.6627596,21.4007061 C90.8325851,21.4006584 90.0066865,21.2831148 89.2101613,21.0516472 L91.6627596,12.7889413 L94.1153579,21.0544708 C93.3186924,21.2849831 92.4927966,21.4015755 91.6627596,21.4007061 L91.6627596,21.4007061 Z" fill="inherit"/>
            <path d="M163.256954,9.07000017 L157.378566,9.07000017 L150.705002,28.0038825 L155.802482,28.0038825 L156.748561,24.815059 C159.078603,25.4919503 161.556204,25.4919503 163.886246,24.815059 L164.832325,28.0038825 L169.930162,28.0038825 L163.256954,9.07000017 Z M160.315977,21.4007061 C159.485802,21.4006584 158.659903,21.2831148 157.863378,21.0516472 L160.315977,12.7889413 L162.768575,21.0544708 C161.971909,21.2849831 161.146014,21.4015755 160.315977,21.4007061 L160.315977,21.4007061 Z" fill="inherit"/>
        </g>
    </symbol>
    <symbol id="LogoTrello" viewBox="0 0 94 32">
        <defs>
        <linearGradient id="uid5" x1="9.33821" y1="23.6824" x2="9.33821" y2="5.00599" gradientUnits="userSpaceOnUse">
            <stop stopColor="#0052CC" offset="0%"/>
            <stop stopColor="#2684FF" offset="100%"/>
        </linearGradient>
        </defs>
        <g stroke="none" strokeWidth="1" fill="#0052CC">
            <path fill="#172B4D" fillRule="evenodd" clipRule="evenodd" d="M68.749 23.7902C66.249 23.7902 64.6742 22.5776 64.6742 19.7573V5H68.5155V19.2304C68.5155 20.0477 69.0574 20.3381 69.7131 20.3381C69.9021 20.3421 70.0911 20.3331 70.2789 20.3112V23.6315C69.7788 23.7552 69.2639 23.8086 68.749 23.7902ZM38.7121 9.98505V6.37431H26.0297V9.98505H30.3051V23.6825H34.4308V9.98505H38.7121ZM40.1498 23.6825H43.9641V16.6227C43.9641 14.464 45.2276 13.8053 47.9072 14.0149V10.027C45.8443 9.89522 44.6856 10.973 43.9641 12.7904V10.2096H40.1498V23.6825ZM72.6901 19.7573C72.6901 22.5776 74.2619 23.7902 76.7619 23.7902C77.2787 23.809 77.7957 23.7556 78.2978 23.6315V20.3112C78.109 20.333 77.9189 20.342 77.7289 20.3381C77.0732 20.3381 76.5313 20.0477 76.5313 19.2304V5H72.6901V19.7573ZM80.1444 16.9402C80.1444 12.7786 82.5396 9.93129 86.6653 9.93129C90.791 9.93129 93.1353 12.7845 93.1353 16.9402C93.1353 21.0958 90.764 24 86.6653 24C82.5665 24 80.1444 21.0749 80.1444 16.9402ZM83.8809 16.9402C83.8809 18.9701 84.7312 20.5749 86.6653 20.5749C88.5994 20.5749 89.3988 18.9701 89.3988 16.9402C89.3988 14.9103 88.5724 13.3474 86.6653 13.3474C84.7581 13.3474 83.8959 14.9103 83.8959 16.9402H83.8809ZM56.2777 18.3621C55.2023 18.3538 54.1281 18.2909 53.0592 18.1734C53.4124 20.0986 54.8256 20.7692 56.8795 20.7692C58.4004 20.7692 59.8854 20.3501 61.1998 19.9309V23.1734C59.7762 23.7133 58.2642 23.9824 56.7417 23.9668C51.6131 23.9668 49.3436 21.4009 49.3436 17.0806C49.3436 12.934 51.9723 9.94 56.0801 9.94C59.1309 9.94 61.6668 12.0058 61.6668 14.7513C61.6668 17.5776 59.1968 18.3621 56.2777 18.3621ZM57.9513 14.6166C57.9513 13.6136 57.0831 12.8801 56.0022 12.8801L55.9992 12.8711C55.4963 12.8789 55.0046 13.0206 54.5746 13.2816C54.1447 13.5426 53.7921 13.9135 53.5532 14.3561C53.2546 14.9118 53.0751 15.5236 53.0262 16.1525C53.686 16.2551 54.3525 16.3081 55.0202 16.3112C56.5861 16.3112 57.9513 15.91 57.9513 14.6166Z"/>
            <path fill="#0c66e4" fillRule="evenodd" clipRule="evenodd" d="M16.4579 5H2.21854C1.63014 5 1.06585 5.23374 0.649794 5.64979C0.233738 6.06585 0 6.63014 0 7.21854V21.4669C0 22.0553 0.233738 22.6196 0.649794 23.0356C1.06585 23.4517 1.63014 23.6854 2.21854 23.6854H16.4579C17.0463 23.6854 17.6106 23.4517 18.0266 23.0356C18.4427 22.6196 18.6764 22.0553 18.6764 21.4669V7.22452C18.6772 6.93268 18.6204 6.64354 18.5093 6.37369C18.3981 6.10383 18.2348 5.85855 18.0287 5.65191C17.8227 5.44527 17.5778 5.28131 17.3083 5.16945C17.0387 5.05758 16.7497 5 16.4579 5V5ZM8.04481 18.4729C8.04481 18.6685 7.96731 18.8561 7.82927 18.9947C7.69123 19.1333 7.50391 19.2116 7.30829 19.2124H4.18558C3.98969 19.2116 3.80205 19.1334 3.66353 18.9949C3.52502 18.8564 3.44685 18.6688 3.44607 18.4729V9.19157C3.44685 8.99568 3.52502 8.80804 3.66353 8.66952C3.80205 8.53101 3.98969 8.45284 4.18558 8.45205H7.30829C7.50391 8.45285 7.69123 8.53111 7.82927 8.66971C7.96731 8.80831 8.04481 8.99595 8.04481 9.19157V18.4729ZM15.2304 14.2185C15.2296 14.4143 15.1514 14.602 15.0129 14.7405C14.8744 14.879 14.6867 14.9572 14.4908 14.958H11.3681C11.1725 14.9572 10.9852 14.8789 10.8471 14.7403C10.7091 14.6017 10.6316 14.4141 10.6316 14.2185V9.19157C10.6316 8.99595 10.7091 8.80831 10.8471 8.66971C10.9852 8.53111 11.1725 8.45285 11.3681 8.45205H14.4908C14.6867 8.45284 14.8744 8.53101 15.0129 8.66952C15.1514 8.80804 15.2296 8.99568 15.2304 9.19157V14.2185Z"/>
        </g>
    </symbol>
</svg>
