<svg viewBox="0 0 30 30" fill="currentColor" xmlns="http://www.w3.org/2000/svg">
    <symbol id="icon-date" width="16" height="16" viewBox="0 0 24 24">
        <path d="M13 6C13 5.44772 12.5523 5 12 5C11.4477 5 11 5.44772 11 6V12C11 12.2652 11.1054 12.5196 11.2929 12.7071L13.7929 15.2071C14.1834 15.5976 14.8166 15.5976 15.2071 15.2071C15.5976 14.8166 15.5976 14.1834 15.2071 13.7929L13 11.5858V6Z" fill="currentColor"></path><path fill-rule="evenodd" clip-rule="evenodd" d="M22 12C22 17.5228 17.5228 22 12 22C6.47715 22 2 17.5228 2 12C2 6.47715 6.47715 2 12 2C17.5228 2 22 6.47715 22 12ZM12 20C16.4183 20 20 16.4183 20 12C20 7.58172 16.4183 4 12 4C7.58172 4 4 7.58172 4 12C4 16.4183 7.58172 20 12 20Z" fill="currentColor"></path>
    </symbol>
    <symbol id="selected_label" viewBox="-3 -4 16 16">
        <path d="M1.49022 3.21486C1.2407 2.94412 0.818938 2.92692 0.548195 3.17644C0.277453 3.42597 0.260252 3.84773 0.509776 4.11847L2.91785 6.73131C3.2762 7.08204 3.80964 7.08204 4.14076 6.75092C4.18159 6.71082 4.18159 6.71082 4.38359 6.51218C4.57995 6.31903 4.79875 6.1037 5.03438 5.87167C5.70762 5.20868 6.38087 4.54459 7.00931 3.92318L7.0362 3.89659C8.15272 2.79246 9.00025 1.9491 9.47463 1.46815C9.73318 1.20602 9.73029 0.783922 9.46815 0.525367C9.20602 0.266812 8.78392 0.269712 8.52537 0.531843C8.05616 1.00754 7.21125 1.84829 6.09866 2.94854L6.07182 2.97508C5.4441 3.59578 4.77147 4.25926 4.09883 4.92165C3.90522 5.11231 3.72299 5.29168 3.55525 5.4567L1.49022 3.21486Z"></path>
    </symbol>
    <symbol id="selected" viewBox="0 0 24 24">
        <path d="M1.49022 3.21486C1.2407 2.94412 0.818938 2.92692 0.548195 3.17644C0.277453 3.42597 0.260252 3.84773 0.509776 4.11847L2.91785 6.73131C3.2762 7.08204 3.80964 7.08204 4.14076 6.75092C4.18159 6.71082 4.18159 6.71082 4.38359 6.51218C4.57995 6.31903 4.79875 6.1037 5.03438 5.87167C5.70762 5.20868 6.38087 4.54459 7.00931 3.92318L7.0362 3.89659C8.15272 2.79246 9.00025 1.9491 9.47463 1.46815C9.73318 1.20602 9.73029 0.783922 9.46815 0.525367C9.20602 0.266812 8.78392 0.269712 8.52537 0.531843C8.05616 1.00754 7.21125 1.84829 6.09866 2.94854L6.07182 2.97508C5.4441 3.59578 4.77147 4.25926 4.09883 4.92165C3.90522 5.11231 3.72299 5.29168 3.55525 5.4567L1.49022 3.21486Z"></path>
    </symbol>
    <symbol id="eye-open" width="14" height="14" viewBox="0 0 24 24" >
        <g fill="currentColor" fillRule="evenodd">
            <path d="M12 18c-4.536 0-7.999-4.26-7.999-6 0-2.001 3.459-6 8-6 4.376 0 7.998 3.973 7.998 6 0 1.74-3.462 6-7.998 6m0-14C6.48 4 2 8.841 2 12c0 3.086 4.576 8 10 8 5.423 0 10-4.914 10-8 0-3.159-4.48-8-10-8"></path>
            <path d="M11.977 13.984c-1.103 0-2-.897-2-2s.897-2 2-2c1.104 0 2 .897 2 2s-.896 2-2 2m0-6c-2.206 0-4 1.794-4 4s1.794 4 4 4c2.207 0 4-1.794 4-4s-1.793-4-4-4"></path>
        </g>
    </symbol>
    <symbol id="close-icon" width="24" height="24" viewBox="0 0 24 24">
        <path fill-rule="evenodd" clip-rule="evenodd" d="M10.5858 12L5.29289 6.70711C4.90237 6.31658 4.90237 5.68342 5.29289 5.29289C5.68342 4.90237 6.31658 4.90237 6.70711 5.29289L12 10.5858L17.2929 5.29289C17.6834 4.90237 18.3166 4.90237 18.7071 5.29289C19.0976 5.68342 19.0976 6.31658 18.7071 6.70711L13.4142 12L18.7071 17.2929C19.0976 17.6834 19.0976 18.3166 18.7071 18.7071C18.3166 19.0976 17.6834 19.0976 17.2929 18.7071L12 13.4142L6.70711 18.7071C6.31658 19.0976 5.68342 19.0976 5.29289 18.7071C4.90237 18.3166 4.90237 17.6834 5.29289 17.2929L10.5858 12Z" fill="currentColor"></path>
    </symbol>
    <symbol id="three_dots" viewBox="0 0 24 24">
        <path fill-rule="evenodd" clip-rule="evenodd" d="M5 14C6.10457 14 7 13.1046 7 12C7 10.8954 6.10457 10 5 10C3.89543 10 3 10.8954 3 12C3 13.1046 3.89543 14 5 14ZM12 14C13.1046 14 14 13.1046 14 12C14 10.8954 13.1046 10 12 10C10.8954 10 10 10.8954 10 12C10 13.1046 10.8954 14 12 14ZM21 12C21 13.1046 20.1046 14 19 14C17.8954 14 17 13.1046 17 12C17 10.8954 17.8954 10 19 10C20.1046 10 21 10.8954 21 12Z" fill="currentColor"></path>
    </symbol>
    <symbol id="pencil-colorless" viewBox="0 0 24 24">
        <path fill-rule="evenodd" clip-rule="evenodd" d="M7.82034 14.4893L9.94134 16.6103L18.4303 8.12131L16.3093 6.00031H16.3073L7.82034 14.4893ZM17.7233 4.58531L19.8443 6.70731C20.6253 7.48831 20.6253 8.7543 19.8443 9.53531L10.0873 19.2933L5.13734 14.3433L14.8943 4.58531C15.2853 4.19531 15.7973 4.00031 16.3093 4.00031C16.8203 4.00031 17.3323 4.19531 17.7233 4.58531ZM5.20094 20.4097C4.49794 20.5537 3.87694 19.9327 4.02094 19.2297L4.80094 15.4207L9.00994 19.6297L5.20094 20.4097Z" fill="currentColor"></path>
    </symbol>
    <symbol id="pencil-logo" >
        <path d="M4.02 19.23a1 1 0 001.18 1.18l3.81-.78-4.21-4.21-.78 3.81zM19.844 6.707l-2.12-2.122A1.997 1.997 0 0016.308 4c-.512 0-1.024.195-1.415.585l-9.757 9.758 4.95 4.95 9.757-9.758a2 2 0 000-2.828z" fill="currentColor" fillRule="evenodd"></path>
    </symbol>
    <symbol id="google-logo" viewBox="0 0 48 48">
        <path fill="#EA4335" d="M24 9.5c3.54 0 6.71 1.22 9.21 3.6l6.85-6.85C35.9 2.38 30.47 0 24 0 14.62 0 6.51 5.38 2.56 13.22l7.98 6.19C12.43 13.72 17.74 9.5 24 9.5z"/><path fill="#4285F4" d="M46.98 24.55c0-1.57-.15-3.09-.38-4.55H24v9.02h12.94c-.58 2.96-2.26 5.48-4.78 7.18l7.73 6c4.51-4.18 7.09-10.36 7.09-17.65z"/><path fill="#FBBC05" d="M10.53 28.59c-.48-1.45-.76-2.99-.76-4.59s.27-3.14.76-4.59l-7.98-6.19C.92 16.46 0 20.12 0 24c0 3.88.92 7.54 2.56 10.78l7.97-6.19z"/><path fill="#34A853" d="M24 48c6.48 0 11.93-2.13 15.89-5.81l-7.73-6c-2.15 1.45-4.92 2.3-8.16 2.3-6.26 0-11.57-4.22-13.47-9.91l-7.98 6.19C6.51 42.62 14.62 48 24 48z"/><path fill="none" d="M0 0h48v48H0z"/>
    </symbol>
    <symbol id="microsoft-logo" >
        <path fill="#f25022" d="M1 1h9v9H1z"/>
        <path fill="#00a4ef" d="M1 11h9v9H1z"/>
        <path fill="#7fba00" d="M11 1h9v9h-9z"/>
        <path fill="#ffb900" d="M11 11h9v9h-9z"/>
    </symbol>
    <symbol id="apple-logo" fill="none">
        <path d="M13.498 9.667a3.86 3.86 0 0 1 1.838-3.238 3.951 3.951 0 0 0-3.113-1.683c-1.31-.138-2.58.784-3.247.784-.68 0-1.708-.77-2.814-.748A4.146 4.146 0 0 0 2.673 6.91c-1.508 2.611-.383 6.45 1.062 8.56.723 1.034 1.567 2.189 2.673 2.148 1.082-.045 1.486-.69 2.792-.69 1.293 0 1.672.69 2.8.664 1.161-.02 1.893-1.039 2.59-2.082a8.55 8.55 0 0 0 1.184-2.412 3.73 3.73 0 0 1-2.276-3.431ZM11.367 3.358a3.8 3.8 0 0 0 .87-2.723A3.866 3.866 0 0 0 9.734 1.93a3.616 3.616 0 0 0-.892 2.621c.98.01 1.91-.43 2.524-1.193Z" fill="#000"/>
    </symbol>
    <symbol id="slack-logo" viewBox="70 70 130 130">
        <style>.st0{fill:#e01e5a}.st1{fill:#36c5f0}.st2{fill:#2eb67d}.st3{fill:#ecb22e}</style>
        <path class="st0" d="M99.4 151.2c0 7.1-5.8 12.9-12.9 12.9-7.1 0-12.9-5.8-12.9-12.9 0-7.1 5.8-12.9 12.9-12.9h12.9v12.9zM105.9 151.2c0-7.1 5.8-12.9 12.9-12.9s12.9 5.8 12.9 12.9v32.3c0 7.1-5.8 12.9-12.9 12.9s-12.9-5.8-12.9-12.9v-32.3z"/><path class="st1" d="M118.8 99.4c-7.1 0-12.9-5.8-12.9-12.9 0-7.1 5.8-12.9 12.9-12.9s12.9 5.8 12.9 12.9v12.9h-12.9zM118.8 105.9c7.1 0 12.9 5.8 12.9 12.9s-5.8 12.9-12.9 12.9H86.5c-7.1 0-12.9-5.8-12.9-12.9s5.8-12.9 12.9-12.9h32.3z"/><path class="st2" d="M170.6 118.8c0-7.1 5.8-12.9 12.9-12.9 7.1 0 12.9 5.8 12.9 12.9s-5.8 12.9-12.9 12.9h-12.9v-12.9zM164.1 118.8c0 7.1-5.8 12.9-12.9 12.9-7.1 0-12.9-5.8-12.9-12.9V86.5c0-7.1 5.8-12.9 12.9-12.9 7.1 0 12.9 5.8 12.9 12.9v32.3z"/><path class="st3" d="M151.2 170.6c7.1 0 12.9 5.8 12.9 12.9 0 7.1-5.8 12.9-12.9 12.9-7.1 0-12.9-5.8-12.9-12.9v-12.9h12.9zM151.2 164.1c-7.1 0-12.9-5.8-12.9-12.9 0-7.1 5.8-12.9 12.9-12.9h32.3c7.1 0 12.9 5.8 12.9 12.9 0 7.1-5.8 12.9-12.9 12.9h-32.3z"/>
    </symbol>
    <symbol id="Loupe" viewBox="0 0 24 24">
        <path d="M16.436 15.085l3.94 4.01a1 1 0 01-1.425 1.402l-3.938-4.006a7.5 7.5 0 111.423-1.406zM10.5 16a5.5 5.5 0 100-11 5.5 5.5 0 000 11z" fill="currentColor" fillRule="evenodd"></path>
    </symbol>
    <symbol id="AddIcon" viewBox="0 0 24 24">
        <path d="M12 3C11.4477 3 11 3.44772 11 4V11L4 11C3.44772 11 3 11.4477 3 12C3 12.5523 3.44772 13 4 13H11V20C11 20.5523 11.4477 21 12 21C12.5523 21 13 20.5523 13 20V13H20C20.5523 13 21 12.5523 21 12C21 11.4477 20.5523 11 20 11L13 11V4C13 3.44772 12.5523 3 12 3Z" fill="currentColor"></path>
    </symbol>

    <symbol id="CloseIcon" viewBox="0 0 24 24">
        <path fill-rule="evenodd" clip-rule="evenodd" d="M10.5858 12L5.29289 6.70711C4.90237 6.31658 4.90237 5.68342 5.29289 5.29289C5.68342 4.90237 6.31658 4.90237 6.70711 5.29289L12 10.5858L17.2929 5.29289C17.6834 4.90237 18.3166 4.90237 18.7071 5.29289C19.0976 5.68342 19.0976 6.31658 18.7071 6.70711L13.4142 12L18.7071 17.2929C19.0976 17.6834 19.0976 18.3166 18.7071 18.7071C18.3166 19.0976 17.6834 19.0976 17.2929 18.7071L12 13.4142L6.70711 18.7071C6.31658 19.0976 5.68342 19.0976 5.29289 18.7071C4.90237 18.3166 4.90237 17.6834 5.29289 17.2929L10.5858 12Z" fill="currentColor"></path>
    </symbol>

    <symbol id="Complain" viewBox="0 0 20 20">
        <path d="M1 12.4V3.156C1 2.517 1.403 2 1.9 2h.7a2 2 0 0 1 2 2v7.556a2 2 0 0 1-2 2h-.7c-.497 0-.9-.518-.9-1.156ZM16.883 12.286H13.5a.563.563 0 0 0-.494.282.561.561 0 0 0-.007.567l1.193 2.143c.262.47.289 1.021.075 1.514a1.703 1.703 0 0 1-1.16.981l-.842.21a.572.572 0 0 1-.564-.172l-4.567-5.063a2.852 2.852 0 0 1-.735-1.91v-5.98A2.864 2.864 0 0 1 9.262 2h5.698c1.286 0 2.422.865 2.761 2.102L18.944 9.7a2.116 2.116 0 0 1-2.061 2.585Z" fill="currentColor" />
    </symbol>

    <symbol id="Promote" viewBox="0 0 20 20">
        <path d="M20 5.472c0-1.393-.497-2.786-1.59-3.88C17.316.497 15.924 0 14.533 0c-1.591 0-3.182.696-4.374 1.89L8.17 4.377c-.198-.1-.497-.199-.696-.199-1.192 0-2.485.597-3.678 1.791-.894.895-3.578 4.377-3.578 4.377-.554.555-.001 1.817 1.093 1.393l2.784-.995 1.384 2.289-1.786 1.787a.847.847 0 1 0 1.197 1.197l1.79-1.79 2.683 1.392-1.093 3.184c-.205 1.094 1.015 1.47 1.49.994 0 0 3.48-2.686 4.375-3.581 1.093-1.194 1.69-2.487 1.79-3.581 0-.299 0-.498-.1-.796l2.187-1.89C19.304 8.654 20 7.062 20 5.471Zm-6.163 3.183a2.462 2.462 0 0 1-2.486-2.487 2.462 2.462 0 0 1 2.486-2.487 2.462 2.462 0 0 1 2.485 2.487 2.462 2.462 0 0 1-2.485 2.487Z" fill="currentColor" />
    </symbol>

    <symbol id="Star" viewBox="0 0 32 32">
        <path d="M31.547 12a.848.848 0 00-.677-.577l-9.427-1.376-4.224-8.532a.847.847 0 00-1.516 0l-4.218 8.534-9.427 1.355a.847.847 0 00-.467 1.467l6.823 6.664-1.612 9.375a.847.847 0 001.23.893l8.428-4.434 8.432 4.432a.847.847 0 001.229-.894l-1.615-9.373 6.822-6.665a.845.845 0 00.214-.869z" />
    </symbol>

    <symbol id="ShareAd" viewBox="0 0 18 20">
        <path fill-rule="evenodd" clip-rule="evenodd" d="M14.319 7.2C16.352 7.2 18 5.588 18 3.6S16.352 0 14.32 0c-2.034 0-3.682 1.612-3.682 3.6 0 .116.005.231.016.344L5.925 7.145A3.72 3.72 0 0 0 3.682 6.4C1.648 6.4 0 8.012 0 10s1.648 3.6 3.682 3.6a3.72 3.72 0 0 0 2.243-.745l4.728 3.2a3.557 3.557 0 0 0-.016.345c0 1.988 1.648 3.6 3.682 3.6C16.352 20 18 18.388 18 16.4s-1.648-3.6-3.681-3.6a3.713 3.713 0 0 0-2.605 1.055L7.263 10.84a3.533 3.533 0 0 0 0-1.682l4.452-3.014A3.712 3.712 0 0 0 14.319 7.2Z" fill="currentColor" />
    </symbol>

    <symbol id="ThisMyBull" viewBox="0 0 20 20">
        <path fill-rule="evenodd" clip-rule="evenodd" d="M14.748 4.348c0 2.401-1.902 4.348-4.249 4.348-2.347 0-4.249-1.947-4.249-4.348S8.152 0 10.5 0c2.346 0 4.248 1.947 4.248 4.348ZM18.601 15.224c1.35 2.391-.94 4.776-3.64 4.776H6.039c-2.698 0-4.989-2.385-3.64-4.776 1.616-2.863 4.64-4.79 8.102-4.79 3.463 0 6.486 1.927 8.101 4.79Z" fill="currentColor" />
    </symbol>

    <symbol id="CrossBtn" viewBox="0 0 16 16" >
        <path fill-rule="evenodd" clip-rule="evenodd" d="M1.707.293A1 1 0 0 0 .293 1.707L6.586 8 .293 14.293a1 1 0 1 0 1.414 1.414L8 9.414l6.293 6.293a1 1 0 0 0 1.414-1.414L9.414 8l6.293-6.293A1 1 0 0 0 14.293.293L8 6.586 1.707.293z" fill="currentColor"/>
    </symbol>

    <symbol id="Verified" viewBox="0 0 20 20" className="css-xylcl3 e1eg0jax1"><defs><linearGradient id="official_svg__a" x1="0%" x2="100%" y1="0%" y2="100%"><stop offset="0%" stop-color="#3EA4FF"></stop><stop offset="100%" stop-color="#00C3FF"></stop></linearGradient></defs><g fill="none" fill-rule="evenodd"><path fill="url(#official_svg__a)" fill-rule="nonzero" d="m11.357.535.095.095 1.068 1.142c.391.42.945.649 1.518.63l1.563-.054a1.987 1.987 0 0 1 2.052 1.918V4.4L17.6 5.963a1.98 1.98 0 0 0 .63 1.518l1.14 1.069c.801.749.844 2.006.095 2.807l-.046.048-1.19 1.115a1.98 1.98 0 0 0-.63 1.518l.053 1.563a1.98 1.98 0 0 1-.527 1.415l-.12.118c-.336.307-.78.5-1.27.518H15.6l-1.563-.053a1.98 1.98 0 0 0-1.518.63L11.45 19.37a1.986 1.986 0 0 1-2.807.095l-.095-.095-1.068-1.142a1.984 1.984 0 0 0-1.518-.63l-1.563.054a1.977 1.977 0 0 1-1.277-.41l-.129-.11-.12-.12a1.973 1.973 0 0 1-.525-1.278V15.6l.053-1.563a1.98 1.98 0 0 0-.63-1.518L.63 11.45a1.986 1.986 0 0 1-.095-2.807l.095-.095L1.772 7.48c.42-.391.649-.945.63-1.518L2.347 4.4a1.987 1.987 0 0 1 1.918-2.052H4.4l1.563.053a1.98 1.98 0 0 0 1.518-.63L8.55.63a1.986 1.986 0 0 1 2.807-.095z"></path><path fill="#FFF" d="M14.658 7.148c.04.343-.06.687-.277.955l-4.189 5.186a1.33 1.33 0 0 1-1.743.282l-2.513-1.595a1.288 1.288 0 0 1-.393-1.792c.4-.604 1.21-.776 1.82-.387l1.511.96 3.446-4.268a1.331 1.331 0 0 1 1.85-.207c.273.211.449.524.488.866z"></path></g></symbol>

    <symbol id="Info" viewBox="0 0 20 20">
        <path fill="currentColor" fill-rule="evenodd" d="M10 20c5.523 0 10-4.477 10-10S15.523 0 10 0 0 4.477 0 10s4.477 10 10 10zm.143-16.5a1.5 1.5 0 1 0 .001 3.001 1.5 1.5 0 0 0-.001-3.001zm-.607 4.498c.546-.002 1.101.188 1.508.598.41.41.601.976.599 1.545v.006a3.338 3.338 0 0 1-.262 1.242l-.682 1.704-.133.332c-.068.17-.088.3-.088.386a.33.33 0 0 0 .02.13.084.084 0 0 0 .018.032c.005.005.011.01.023.014.015.005.05.015.116.016.156.002.523-.09.99-.528.36-.336.958-.424 1.39-.058.412.348.498 1.007.07 1.428-.755.742-1.606 1.153-2.453 1.157a2.165 2.165 0 0 1-1.556-.62c-.412-.414-.62-.984-.618-1.57a3.07 3.07 0 0 1 .232-1.13l.237-.595.58-1.446c.09-.227.116-.395.116-.5a.369.369 0 0 0-.017-.13l-.001-.003a.342.342 0 0 0-.092-.011h-.002c-.164-.002-.576.109-1.082.59-.358.34-.958.426-1.39.06-.412-.348-.496-1.005-.071-1.426.782-.776 1.666-1.215 2.546-1.223h.002z" clip-rule="evenodd"/>
    </symbol>

    <symbol id="KebabMenu" viewBox="0 0 24 24">
        <path fill-rule="evenodd" clip-rule="evenodd" d="M4 5C4 4.44772 4.44772 4 5 4H7C7.55228 4 8 4.44772 8 5V7C8 7.55228 7.55228 8 7 8H5C4.44772 8 4 7.55228 4 7V5ZM4 11C4 10.4477 4.44772 10 5 10H7C7.55228 10 8 10.4477 8 11V13C8 13.5523 7.55228 14 7 14H5C4.44772 14 4 13.5523 4 13V11ZM11 4C10.4477 4 10 4.44772 10 5V7C10 7.55228 10.4477 8 11 8H13C13.5523 8 14 7.55228 14 7V5C14 4.44772 13.5523 4 13 4H11ZM10 11C10 10.4477 10.4477 10 11 10H13C13.5523 10 14 10.4477 14 11V13C14 13.5523 13.5523 14 13 14H11C10.4477 14 10 13.5523 10 13V11ZM17 4C16.4477 4 16 4.44772 16 5V7C16 7.55228 16.4477 8 17 8H19C19.5523 8 20 7.55228 20 7V5C20 4.44772 19.5523 4 19 4H17ZM16 11C16 10.4477 16.4477 10 17 10H19C19.5523 10 20 10.4477 20 11V13C20 13.5523 19.5523 14 19 14H17C16.4477 14 16 13.5523 16 13V11ZM5 16C4.44772 16 4 16.4477 4 17V19C4 19.5523 4.44772 20 5 20H7C7.55228 20 8 19.5523 8 19V17C8 16.4477 7.55228 16 7 16H5ZM10 17C10 16.4477 10.4477 16 11 16H13C13.5523 16 14 16.4477 14 17V19C14 19.5523 13.5523 20 13 20H11C10.4477 20 10 19.5523 10 19V17ZM17 16C16.4477 16 16 16.4477 16 17V19C16 19.5523 16.4477 20 17 20H19C19.5523 20 20 19.5523 20 19V17C20 16.4477 19.5523 16 19 16H17Z" fill="currentColor"/>
    </symbol>

    <symbol id="Search" viewBox="0 0 24 24">
        <path d="M16.436 15.085l3.94 4.01a1 1 0 01-1.425 1.402l-3.938-4.006a7.5 7.5 0 111.423-1.406zM10.5 16a5.5 5.5 0 100-11 5.5 5.5 0 000 11z" fill="currentColor" fill-rule="evenodd"></path>
    </symbol>
    <symbol id="ArrowDown" viewBox="0 0 24 24">
        <path d="M11.2929 16.7071L4.22185 9.63606C3.83132 9.24554 3.83132 8.61237 4.22185 8.22185C4.61237 7.83133 5.24554 7.83133 5.63606 8.22185L12 14.5858L18.364 8.22185C18.7545 7.83132 19.3877 7.83132 19.7782 8.22185C20.1687 8.61237 20.1687 9.24554 19.7782 9.63606L12.7071 16.7071C12.3166 17.0977 11.6834 17.0977 11.2929 16.7071Z" fill="currentColor"/>
    </symbol>

    <symbol id="Atlassian" viewBox="0 0 32 32">
        <path id="Vector" d="M10.9015 15.2C10.7924 15.0546 10.5742 14.9818 10.3924 14.9818C10.247 15.0182 10.1015 15.1273 10.0288 15.2727L4.06515 27.2364C3.91969 27.4909 4.02879 27.8182 4.28333 27.9273C4.35606 27.9637 4.42879 28 4.50152 28H12.8288C13.0106 28 13.2288 27.8909 13.3015 27.7091C15.047 24.1091 13.9561 18.4728 10.9015 15.2Z"/>
        <path id="Vector_2" d="M27.9561 27.2364C27.847 27.0182 16.7561 4.83638 16.5015 4.29093C16.4288 4.14547 16.2833 4.03636 16.1015 4H16.0651C15.8833 4 15.7015 4.10911 15.5924 4.29093C12.5742 9.05456 12.247 14.8 14.6833 19.6727L18.6833 27.7091C18.7561 27.8909 18.9379 28 19.1561 28H27.4833C27.7742 28 27.9924 27.7818 27.9924 27.4909C27.9924 27.3818 27.9924 27.3091 27.9561 27.2364Z"/>
    </symbol>

    <symbol id="Trello" viewBox="0 0 256 256">
        <defs>
        <linearGradient x1="50%" y1="0%" x2="50%" y2="100%" id="a">
        <stop stop-color="#0091E6" offset="0%"/>
        <stop stop-color="#0079BF" offset="100%"/>
        </linearGradient></defs><rect fill="url(#a)" width="256" height="256" rx="25"/>
        <rect fill="#FFF" x="144.64" y="33.28" width="78.08" height="112" rx="12"/>
        <rect fill="#FFF" x="33.28" y="33.28" width="78.08" height="176" rx="12"/>
    </symbol>

    <symbol id="Plus" viewBox="0 0 24 24">
        <path d="M12 3C11.4477 3 11 3.44772 11 4V11L4 11C3.44772 11 3 11.4477 3 12C3 12.5523 3.44772 13 4 13H11V20C11 20.5523 11.4477 21 12 21C12.5523 21 13 20.5523 13 20V13H20C20.5523 13 21 12.5523 21 12C21 11.4477 20.5523 11 20 11L13 11V4C13 3.44772 12.5523 3 12 3Z"/>
    </symbol>

    <symbol id="Trash" viewBox="0 0 24 24">
      <path d="M18 6L17.1991 18.0129C17.129 19.065 17.0939 19.5911 16.8667 19.99C16.6666 20.3412 16.3648 20.6235 16.0011 20.7998C15.588 21 15.0607 21 14.0062 21H9.99377C8.93927 21 8.41202 21 7.99889 20.7998C7.63517 20.6235 7.33339 20.3412 7.13332 19.99C6.90607 19.5911 6.871 19.065 6.80086 18.0129L6 6M4 6H20M16 6L15.7294 5.18807C15.4671 4.40125 15.3359 4.00784 15.0927 3.71698C14.8779 3.46013 14.6021 3.26132 14.2905 3.13878C13.9376 3 13.523 3 12.6936 3H11.3064C10.477 3 10.0624 3 9.70951 3.13878C9.39792 3.26132 9.12208 3.46013 8.90729 3.71698C8.66405 4.00784 8.53292 4.40125 8.27064 5.18807L8 6M14 10V17M10 10V17"/>
    </symbol>

    <symbol id="People" viewBox="0 0 24 24">
        <path d="M12 13C14.7614 13 17 10.7614 17 8C17 5.23858 14.7614 3 12 3C9.23858 3 7 5.23858 7 8C7 9.44777 7.61532 10.7518 8.59871 11.6649C5.31433 13.0065 3 16.233 3 20C3 20.5523 3.44772 21 4 21H12C12.5523 21 13 20.5523 13 20C13 19.4477 12.5523 19 12 19H5.07089C5.55612 15.6077 8.47353 13 12 13ZM15 8C15 9.65685 13.6569 11 12 11C10.3431 11 9 9.65685 9 8C9 6.34315 10.3431 5 12 5C13.6569 5 15 6.34315 15 8Z"/>
        <path d="M17 14C17 13.4477 17.4477 13 18 13C18.5523 13 19 13.4477 19 14V16H21C21.5523 16 22 16.4477 22 17C22 17.5523 21.5523 18 21 18H19V20C19 20.5523 18.5523 21 18 21C17.4477 21 17 20.5523 17 20V18H15C14.4477 18 14 17.5523 14 17C14 16.4477 14.4477 16 15 16H17V14Z"/>
    </symbol>

    <symbol id="Castle" viewBox="0 0 24 24">
        <path d="M5 11C5 9.89543 5.89543 9 7 9H8H10H14H16H17C18.1046 9 19 9.89543 19 11V19C19 20.1046 18.1046 21 17 21H7C5.89543 21 5 20.1046 5 19V11ZM10 11H14H16H17V19H7V11H8H10ZM14 15C14 16.1046 13.1046 17 12 17C10.8954 17 10 16.1046 10 15C10 13.8954 10.8954 13 12 13C13.1046 13 14 13.8954 14 15Z" fill="currentColor"/>
        <path d="M10.3817 5.69846C10.0982 6.10344 10 6.63103 10 7V9H8V7C8 6.36897 8.15175 5.39656 8.74327 4.55154C9.37523 3.64874 10.4367 3 12 3C13.5633 3 14.6248 3.64874 15.2567 4.55154C15.8482 5.39656 16 6.36897 16 7V9H14V7C14 6.63103 13.9018 6.10344 13.6183 5.69846C13.3752 5.35126 12.9367 5 12 5C11.0633 5 10.6248 5.35126 10.3817 5.69846Z" fill="currentColor"/>
    </symbol>

    <symbol id="Pencil" viewBox="0 0 24 24">
        <path d="M7.82034 14.4893L9.94134 16.6103L18.4303 8.12131L16.3093 6.00031H16.3073L7.82034 14.4893ZM17.7233 4.58531L19.8443 6.70731C20.6253 7.48831 20.6253 8.7543 19.8443 9.53531L10.0873 19.2933L5.13734 14.3433L14.8943 4.58531C15.2853 4.19531 15.7973 4.00031 16.3093 4.00031C16.8203 4.00031 17.3323 4.19531 17.7233 4.58531ZM5.20094 20.4097C4.49794 20.5537 3.87694 19.9327 4.02094 19.2297L4.80094 15.4207L9.00994 19.6297L5.20094 20.4097Z" fill="currentColor"/>
    </symbol>

    <symbol id="QuestionMark" viewBox="0 0 48 48">
        <path fill-rule="evenodd" clip-rule="evenodd" d="M24 42C33.9411 42 42 33.9411 42 24C42 14.0589 33.9411 6 24 6C14.0589 6 6 14.0589 6 24C6 33.9411 14.0589 42 24 42ZM24 44C35.0457 44 44 35.0457 44 24C44 12.9543 35.0457 4 24 4C12.9543 4 4 12.9543 4 24C4 35.0457 12.9543 44 24 44Z" fill="#333333"/>
        <path d="M31.6631 12.3027C33.6894 13.8676 35 16.2296 35 19.2903C35 22.8107 33.0456 25.2437 30.8102 26.7355C29.2829 27.7547 27.5519 28.395 26 28.7291V30C26 31.1046 25.1046 32 24 32C22.8954 32 22 31.1046 22 30V27C22 25.9444 22.8203 25.0706 23.8738 25.004C25.1758 24.9217 27.0744 24.4196 28.5898 23.4083C30.0544 22.4309 31 21.1102 31 19.2903C31 17.4962 30.2856 16.2929 29.2181 15.4684C28.0852 14.5934 26.4424 14.0721 24.6041 14.0069C22.7734 13.9419 20.9308 14.3379 19.5007 15.0879C18.0704 15.838 17.2151 16.8431 16.9415 17.9496C16.6765 19.0219 15.5923 19.6763 14.52 19.4112C13.4478 19.1462 12.7934 18.062 13.0584 16.9897C13.6849 14.4553 15.5296 12.6538 17.643 11.5455C19.7567 10.4369 22.3015 9.92266 24.7459 10.0094C27.1825 10.0958 29.7023 10.7882 31.6631 12.3027Z" fill="#333333"/>
        <path d="M22 36C22 34.8954 22.8954 34 24 34C25.1045 34 26 34.8954 26 36C26 37.1046 25.1045 38 24 38C22.8954 38 22 37.1046 22 36Z" fill="#333333"/>
    </symbol>

    <symbol id="ManPlus" viewBox="0 0 24 24">
      <path fill-rule="evenodd" clip-rule="evenodd" d="M12 13C14.7614 13 17 10.7614 17 8C17 5.23858 14.7614 3 12 3C9.23858 3 7 5.23858 7 8C7 9.44777 7.61532 10.7518 8.59871 11.6649C5.31433 13.0065 3 16.233 3 20C3 20.5523 3.44772 21 4 21H12C12.5523 21 13 20.5523 13 20C13 19.4477 12.5523 19 12 19H5.07089C5.55612 15.6077 8.47353 13 12 13ZM15 8C15 9.65685 13.6569 11 12 11C10.3431 11 9 9.65685 9 8C9 6.34315 10.3431 5 12 5C13.6569 5 15 6.34315 15 8Z" fill="currentColor"/>
      <path d="M17 14C17 13.4477 17.4477 13 18 13C18.5523 13 19 13.4477 19 14V16H21C21.5523 16 22 16.4477 22 17C22 17.5523 21.5523 18 21 18H19V20C19 20.5523 18.5523 21 18 21C17.4477 21 17 20.5523 17 20V18H15C14.4477 18 14 17.5523 14 17C14 16.4477 14.4477 16 15 16H17V14Z" fill="currentColor"/>
    </symbol>

</svg>
