<svg viewBox="0 0 30 30" fill="currentColor" xmlns="http://www.w3.org/2000/svg">
    <symbol id="Loupe" viewBox="0 0 24 24">
        <path d="M16.436 15.085l3.94 4.01a1 1 0 01-1.425 1.402l-3.938-4.006a7.5 7.5 0 111.423-1.406zM10.5 16a5.5 5.5 0 100-11 5.5 5.5 0 000 11z" fill="currentColor" fillRule="evenodd"></path>
    </symbol>
    <symbol id="AddIcon" viewBox="0 0 24 24">
        <path d="M12 3C11.4477 3 11 3.44772 11 4V11L4 11C3.44772 11 3 11.4477 3 12C3 12.5523 3.44772 13 4 13H11V20C11 20.5523 11.4477 21 12 21C12.5523 21 13 20.5523 13 20V13H20C20.5523 13 21 12.5523 21 12C21 11.4477 20.5523 11 20 11L13 11V4C13 3.44772 12.5523 3 12 3Z" fill="currentColor"></path>
    </symbol>

    <symbol id="CloseIcon" viewBox="0 0 24 24">
        <path fill-rule="evenodd" clip-rule="evenodd" d="M10.5858 12L5.29289 6.70711C4.90237 6.31658 4.90237 5.68342 5.29289 5.29289C5.68342 4.90237 6.31658 4.90237 6.70711 5.29289L12 10.5858L17.2929 5.29289C17.6834 4.90237 18.3166 4.90237 18.7071 5.29289C19.0976 5.68342 19.0976 6.31658 18.7071 6.70711L13.4142 12L18.7071 17.2929C19.0976 17.6834 19.0976 18.3166 18.7071 18.7071C18.3166 19.0976 17.6834 19.0976 17.2929 18.7071L12 13.4142L6.70711 18.7071C6.31658 19.0976 5.68342 19.0976 5.29289 18.7071C4.90237 18.3166 4.90237 17.6834 5.29289 17.2929L10.5858 12Z" fill="currentColor"></path>
    </symbol>

    <symbol id="Complain" viewBox="0 0 20 20">
        <path d="M1 12.4V3.156C1 2.517 1.403 2 1.9 2h.7a2 2 0 0 1 2 2v7.556a2 2 0 0 1-2 2h-.7c-.497 0-.9-.518-.9-1.156ZM16.883 12.286H13.5a.563.563 0 0 0-.494.282.561.561 0 0 0-.007.567l1.193 2.143c.262.47.289 1.021.075 1.514a1.703 1.703 0 0 1-1.16.981l-.842.21a.572.572 0 0 1-.564-.172l-4.567-5.063a2.852 2.852 0 0 1-.735-1.91v-5.98A2.864 2.864 0 0 1 9.262 2h5.698c1.286 0 2.422.865 2.761 2.102L18.944 9.7a2.116 2.116 0 0 1-2.061 2.585Z" fill="currentColor" />
    </symbol>

    <symbol id="Promote" viewBox="0 0 20 20">
        <path d="M20 5.472c0-1.393-.497-2.786-1.59-3.88C17.316.497 15.924 0 14.533 0c-1.591 0-3.182.696-4.374 1.89L8.17 4.377c-.198-.1-.497-.199-.696-.199-1.192 0-2.485.597-3.678 1.791-.894.895-3.578 4.377-3.578 4.377-.554.555-.001 1.817 1.093 1.393l2.784-.995 1.384 2.289-1.786 1.787a.847.847 0 1 0 1.197 1.197l1.79-1.79 2.683 1.392-1.093 3.184c-.205 1.094 1.015 1.47 1.49.994 0 0 3.48-2.686 4.375-3.581 1.093-1.194 1.69-2.487 1.79-3.581 0-.299 0-.498-.1-.796l2.187-1.89C19.304 8.654 20 7.062 20 5.471Zm-6.163 3.183a2.462 2.462 0 0 1-2.486-2.487 2.462 2.462 0 0 1 2.486-2.487 2.462 2.462 0 0 1 2.485 2.487 2.462 2.462 0 0 1-2.485 2.487Z" fill="currentColor" />
    </symbol>

    <symbol id="Star" viewBox="0 0 32 32">
        <path d="M31.547 12a.848.848 0 00-.677-.577l-9.427-1.376-4.224-8.532a.847.847 0 00-1.516 0l-4.218 8.534-9.427 1.355a.847.847 0 00-.467 1.467l6.823 6.664-1.612 9.375a.847.847 0 001.23.893l8.428-4.434 8.432 4.432a.847.847 0 001.229-.894l-1.615-9.373 6.822-6.665a.845.845 0 00.214-.869z" />
    </symbol>

    <symbol id="ShareAd" viewBox="0 0 18 20">
        <path fill-rule="evenodd" clip-rule="evenodd" d="M14.319 7.2C16.352 7.2 18 5.588 18 3.6S16.352 0 14.32 0c-2.034 0-3.682 1.612-3.682 3.6 0 .116.005.231.016.344L5.925 7.145A3.72 3.72 0 0 0 3.682 6.4C1.648 6.4 0 8.012 0 10s1.648 3.6 3.682 3.6a3.72 3.72 0 0 0 2.243-.745l4.728 3.2a3.557 3.557 0 0 0-.016.345c0 1.988 1.648 3.6 3.682 3.6C16.352 20 18 18.388 18 16.4s-1.648-3.6-3.681-3.6a3.713 3.713 0 0 0-2.605 1.055L7.263 10.84a3.533 3.533 0 0 0 0-1.682l4.452-3.014A3.712 3.712 0 0 0 14.319 7.2Z" fill="currentColor" />
    </symbol>

    <symbol id="ThisMyBull" viewBox="0 0 20 20">
        <path fill-rule="evenodd" clip-rule="evenodd" d="M14.748 4.348c0 2.401-1.902 4.348-4.249 4.348-2.347 0-4.249-1.947-4.249-4.348S8.152 0 10.5 0c2.346 0 4.248 1.947 4.248 4.348ZM18.601 15.224c1.35 2.391-.94 4.776-3.64 4.776H6.039c-2.698 0-4.989-2.385-3.64-4.776 1.616-2.863 4.64-4.79 8.102-4.79 3.463 0 6.486 1.927 8.101 4.79Z" fill="currentColor" />
    </symbol>

    <symbol id="CrossBtn" viewBox="0 0 16 16" >
        <path fill-rule="evenodd" clip-rule="evenodd" d="M1.707.293A1 1 0 0 0 .293 1.707L6.586 8 .293 14.293a1 1 0 1 0 1.414 1.414L8 9.414l6.293 6.293a1 1 0 0 0 1.414-1.414L9.414 8l6.293-6.293A1 1 0 0 0 14.293.293L8 6.586 1.707.293z" fill="currentColor"/>
    </symbol>

    <symbol id="Verified" viewBox="0 0 20 20" className="css-xylcl3 e1eg0jax1"><defs><linearGradient id="official_svg__a" x1="0%" x2="100%" y1="0%" y2="100%"><stop offset="0%" stop-color="#3EA4FF"></stop><stop offset="100%" stop-color="#00C3FF"></stop></linearGradient></defs><g fill="none" fill-rule="evenodd"><path fill="url(#official_svg__a)" fill-rule="nonzero" d="m11.357.535.095.095 1.068 1.142c.391.42.945.649 1.518.63l1.563-.054a1.987 1.987 0 0 1 2.052 1.918V4.4L17.6 5.963a1.98 1.98 0 0 0 .63 1.518l1.14 1.069c.801.749.844 2.006.095 2.807l-.046.048-1.19 1.115a1.98 1.98 0 0 0-.63 1.518l.053 1.563a1.98 1.98 0 0 1-.527 1.415l-.12.118c-.336.307-.78.5-1.27.518H15.6l-1.563-.053a1.98 1.98 0 0 0-1.518.63L11.45 19.37a1.986 1.986 0 0 1-2.807.095l-.095-.095-1.068-1.142a1.984 1.984 0 0 0-1.518-.63l-1.563.054a1.977 1.977 0 0 1-1.277-.41l-.129-.11-.12-.12a1.973 1.973 0 0 1-.525-1.278V15.6l.053-1.563a1.98 1.98 0 0 0-.63-1.518L.63 11.45a1.986 1.986 0 0 1-.095-2.807l.095-.095L1.772 7.48c.42-.391.649-.945.63-1.518L2.347 4.4a1.987 1.987 0 0 1 1.918-2.052H4.4l1.563.053a1.98 1.98 0 0 0 1.518-.63L8.55.63a1.986 1.986 0 0 1 2.807-.095z"></path><path fill="#FFF" d="M14.658 7.148c.04.343-.06.687-.277.955l-4.189 5.186a1.33 1.33 0 0 1-1.743.282l-2.513-1.595a1.288 1.288 0 0 1-.393-1.792c.4-.604 1.21-.776 1.82-.387l1.511.96 3.446-4.268a1.331 1.331 0 0 1 1.85-.207c.273.211.449.524.488.866z"></path></g></symbol>

    <symbol id="Info" viewBox="0 0 20 20">
        <path fill="currentColor" fill-rule="evenodd" d="M10 20c5.523 0 10-4.477 10-10S15.523 0 10 0 0 4.477 0 10s4.477 10 10 10zm.143-16.5a1.5 1.5 0 1 0 .001 3.001 1.5 1.5 0 0 0-.001-3.001zm-.607 4.498c.546-.002 1.101.188 1.508.598.41.41.601.976.599 1.545v.006a3.338 3.338 0 0 1-.262 1.242l-.682 1.704-.133.332c-.068.17-.088.3-.088.386a.33.33 0 0 0 .02.13.084.084 0 0 0 .018.032c.005.005.011.01.023.014.015.005.05.015.116.016.156.002.523-.09.99-.528.36-.336.958-.424 1.39-.058.412.348.498 1.007.07 1.428-.755.742-1.606 1.153-2.453 1.157a2.165 2.165 0 0 1-1.556-.62c-.412-.414-.62-.984-.618-1.57a3.07 3.07 0 0 1 .232-1.13l.237-.595.58-1.446c.09-.227.116-.395.116-.5a.369.369 0 0 0-.017-.13l-.001-.003a.342.342 0 0 0-.092-.011h-.002c-.164-.002-.576.109-1.082.59-.358.34-.958.426-1.39.06-.412-.348-.496-1.005-.071-1.426.782-.776 1.666-1.215 2.546-1.223h.002z" clip-rule="evenodd"/>
    </symbol>

    <symbol id="KebabMenu" viewBox="0 0 24 24">
        <path fill-rule="evenodd" clip-rule="evenodd" d="M4 5C4 4.44772 4.44772 4 5 4H7C7.55228 4 8 4.44772 8 5V7C8 7.55228 7.55228 8 7 8H5C4.44772 8 4 7.55228 4 7V5ZM4 11C4 10.4477 4.44772 10 5 10H7C7.55228 10 8 10.4477 8 11V13C8 13.5523 7.55228 14 7 14H5C4.44772 14 4 13.5523 4 13V11ZM11 4C10.4477 4 10 4.44772 10 5V7C10 7.55228 10.4477 8 11 8H13C13.5523 8 14 7.55228 14 7V5C14 4.44772 13.5523 4 13 4H11ZM10 11C10 10.4477 10.4477 10 11 10H13C13.5523 10 14 10.4477 14 11V13C14 13.5523 13.5523 14 13 14H11C10.4477 14 10 13.5523 10 13V11ZM17 4C16.4477 4 16 4.44772 16 5V7C16 7.55228 16.4477 8 17 8H19C19.5523 8 20 7.55228 20 7V5C20 4.44772 19.5523 4 19 4H17ZM16 11C16 10.4477 16.4477 10 17 10H19C19.5523 10 20 10.4477 20 11V13C20 13.5523 19.5523 14 19 14H17C16.4477 14 16 13.5523 16 13V11ZM5 16C4.44772 16 4 16.4477 4 17V19C4 19.5523 4.44772 20 5 20H7C7.55228 20 8 19.5523 8 19V17C8 16.4477 7.55228 16 7 16H5ZM10 17C10 16.4477 10.4477 16 11 16H13C13.5523 16 14 16.4477 14 17V19C14 19.5523 13.5523 20 13 20H11C10.4477 20 10 19.5523 10 19V17ZM17 16C16.4477 16 16 16.4477 16 17V19C16 19.5523 16.4477 20 17 20H19C19.5523 20 20 19.5523 20 19V17C20 16.4477 19.5523 16 19 16H17Z" fill="currentColor"/>
    </symbol>

    <symbol id="Search" viewBox="0 0 24 24">
        <path d="M16.436 15.085l3.94 4.01a1 1 0 01-1.425 1.402l-3.938-4.006a7.5 7.5 0 111.423-1.406zM10.5 16a5.5 5.5 0 100-11 5.5 5.5 0 000 11z" fill="currentColor" fill-rule="evenodd"></path>
    </symbol>
    <symbol id="ArrowDown" viewBox="0 0 24 24">
        <path d="M11.2929 16.7071L4.22185 9.63606C3.83132 9.24554 3.83132 8.61237 4.22185 8.22185C4.61237 7.83133 5.24554 7.83133 5.63606 8.22185L12 14.5858L18.364 8.22185C18.7545 7.83132 19.3877 7.83132 19.7782 8.22185C20.1687 8.61237 20.1687 9.24554 19.7782 9.63606L12.7071 16.7071C12.3166 17.0977 11.6834 17.0977 11.2929 16.7071Z" fill="currentColor"/>
    </symbol>

    <symbol id="Atlassian" viewBox="0 0 32 32">
        <path id="Vector" d="M10.9015 15.2C10.7924 15.0546 10.5742 14.9818 10.3924 14.9818C10.247 15.0182 10.1015 15.1273 10.0288 15.2727L4.06515 27.2364C3.91969 27.4909 4.02879 27.8182 4.28333 27.9273C4.35606 27.9637 4.42879 28 4.50152 28H12.8288C13.0106 28 13.2288 27.8909 13.3015 27.7091C15.047 24.1091 13.9561 18.4728 10.9015 15.2Z"/>
        <path id="Vector_2" d="M27.9561 27.2364C27.847 27.0182 16.7561 4.83638 16.5015 4.29093C16.4288 4.14547 16.2833 4.03636 16.1015 4H16.0651C15.8833 4 15.7015 4.10911 15.5924 4.29093C12.5742 9.05456 12.247 14.8 14.6833 19.6727L18.6833 27.7091C18.7561 27.8909 18.9379 28 19.1561 28H27.4833C27.7742 28 27.9924 27.7818 27.9924 27.4909C27.9924 27.3818 27.9924 27.3091 27.9561 27.2364Z"/>
    </symbol>

    <symbol id="Trello" viewBox="0 0 256 256">
        <defs>
        <linearGradient x1="50%" y1="0%" x2="50%" y2="100%" id="a">
        <stop stop-color="#0091E6" offset="0%"/>
        <stop stop-color="#0079BF" offset="100%"/>
        </linearGradient></defs><rect fill="url(#a)" width="256" height="256" rx="25"/>
        <rect fill="#FFF" x="144.64" y="33.28" width="78.08" height="112" rx="12"/>
        <rect fill="#FFF" x="33.28" y="33.28" width="78.08" height="176" rx="12"/>
    </symbol>
</svg>
